<svg width="372" height="372" viewBox="0 0 372 372" fill="none" xmlns="http://www.w3.org/2000/svg">
<path opacity="0.4" d="M223.034 306.667L143.38 269.049C142.924 268.832 142.548 268.518 142.29 268.14C142.032 267.763 141.903 267.336 141.915 266.904C141.927 266.471 142.08 266.05 142.358 265.682C142.637 265.315 143.03 265.016 143.498 264.816L153.521 260.582C153.958 260.398 154.444 260.306 154.935 260.315C155.426 260.324 155.907 260.434 156.333 260.634L238.664 299.517C239.122 299.733 239.501 300.046 239.76 300.424C240.02 300.801 240.15 301.229 240.138 301.662C240.126 302.096 239.972 302.518 239.691 302.886C239.411 303.253 239.015 303.552 238.546 303.75L231.289 306.823C230.007 307.367 228.579 307.638 227.137 307.611C225.694 307.584 224.283 307.259 223.034 306.667Z" fill="#D6D8E5"/>
<path d="M227.914 299.584L160.043 267.442C154.292 264.719 149.675 257.42 149.675 251.133V95.8396C149.675 89.5526 154.337 86.6657 160.089 89.3889L227.959 121.531C233.71 124.254 238.373 131.553 238.373 137.84V293.133C238.328 299.42 233.665 302.307 227.914 299.584Z" fill="#B1B4C4"/>
<path d="M229.084 302.389L234.463 300.157L229.302 292.903L229.084 302.389Z" fill="#B1B4C4"/>
<path d="M148.577 90.9364L153.53 88.8085L152.532 94.7905L148.577 90.9364Z" fill="#B1B4C4"/>
<path d="M223.587 301.362L155.716 269.22C149.965 266.497 145.303 259.191 145.303 252.904V97.6178C145.303 91.3308 149.965 88.4365 155.716 91.1597L223.587 123.302C229.338 126.025 234.001 133.331 234.001 139.618V294.904C234.037 301.191 229.338 304.085 223.587 301.362Z" fill="#616E84"/>
<path d="M233.275 140.012V295.298C233.275 301.593 228.622 304.48 222.87 301.756L196.246 289.153L187.973 285.232L154.991 269.607C149.239 266.884 144.586 259.585 144.586 253.291V98.0122C144.586 91.7177 149.239 88.8383 154.991 91.554L222.87 123.696C228.594 126.419 233.275 133.718 233.275 140.012Z" fill="#20232D"/>
<path d="M228.386 138.435V289.681C228.386 293.49 225.129 295.038 221.129 293.126L199.911 283.081L198.033 282.196L197.407 281.891L192.799 279.741L179.519 273.469L174.013 270.864L171.799 269.815L156.759 262.695C152.741 260.79 149.502 256.155 149.502 252.338V101.07C149.502 97.2607 152.759 95.7131 156.759 97.6178L183.238 110.17V110.229C183.347 111.844 183.919 113.416 184.907 114.816C185.896 116.216 187.272 117.405 188.926 118.287C192.065 119.775 194.604 118.562 194.604 115.601C194.604 115.601 194.604 115.556 194.604 115.534L221.11 128.086C225.129 129.99 228.386 134.655 228.386 138.435Z" fill="white"/>
<path d="M191.206 117.19C192.052 116.791 192.057 115.497 191.218 114.3C190.379 113.102 189.013 112.455 188.167 112.853C187.322 113.252 187.317 114.546 188.156 115.743C188.995 116.941 190.361 117.589 191.206 117.19Z" fill="#2B303F"/>
<path opacity="0.1" d="M188.935 115.415C188.672 115.275 188.453 115.086 188.296 114.864C188.138 114.641 188.047 114.392 188.028 114.135C188.028 113.659 188.436 113.473 188.935 113.704C189.199 113.844 189.419 114.034 189.577 114.258C189.735 114.482 189.825 114.733 189.842 114.991C189.833 115.46 189.434 115.653 188.935 115.415Z" fill="white"/>
<path d="M236.033 160.443C235.479 160.711 235.026 160.443 235.026 159.826V153.204C235.032 152.896 235.126 152.593 235.301 152.321C235.476 152.048 235.727 151.813 236.033 151.634C236.586 151.366 237.031 151.634 237.031 152.252V158.874C237.026 159.181 236.934 159.484 236.761 159.756C236.587 160.029 236.338 160.265 236.033 160.443Z" fill="#757B89"/>
<path d="M236.033 171.291C235.479 171.559 235.026 171.291 235.026 170.674V164.052C235.032 163.744 235.126 163.441 235.301 163.168C235.476 162.896 235.727 162.661 236.033 162.482C236.586 162.214 237.031 162.482 237.031 163.1V169.721C237.026 170.029 236.934 170.331 236.761 170.604C236.587 170.877 236.338 171.112 236.033 171.291Z" fill="#757B89"/>
<path d="M215.595 154.394L160.47 128.287C159.615 127.786 158.917 127.128 158.43 126.366C157.943 125.603 157.682 124.758 157.667 123.897V111.442C157.667 109.753 158.918 108.972 160.47 109.708L215.595 135.809C216.448 136.312 217.145 136.971 217.632 137.735C218.119 138.498 218.381 139.345 218.398 140.206V152.653C218.398 154.35 217.137 155.124 215.595 154.394Z" fill="#E9EAF2"/>
<path d="M157.667 122.535V134.038L165.45 130.645L157.667 122.535Z" fill="#E9EAF2"/>
<path d="M210.452 141.783L168.878 122.096V118.555L210.452 138.242V141.783Z" fill="#D9DAE2"/>
<path d="M189.434 137.141L168.878 127.401V123.867L189.434 133.599V137.141Z" fill="#D9DAE2"/>
<path d="M200.646 210.799L160.47 191.774C159.615 191.274 158.917 190.616 158.43 189.854C157.943 189.091 157.682 188.245 157.667 187.385V180.904C157.667 179.215 158.918 178.434 160.47 179.171L200.646 198.195C201.498 198.697 202.196 199.355 202.683 200.117C203.169 200.88 203.432 201.725 203.449 202.585V209.058C203.449 210.755 202.188 211.536 200.646 210.799Z" fill="#E9EAF2"/>
<path d="M157.667 185.807V197.31L165.45 193.917L157.667 185.807Z" fill="#E9EAF2"/>
<path d="M197.462 205.092L166.121 190.249V186.708L197.462 201.551V205.092Z" fill="#D9DAE2"/>
<path d="M179.972 172.177L215.595 189.044C217.137 189.788 218.398 188.999 218.398 187.31V174.833C218.382 173.972 218.119 173.127 217.633 172.365C217.146 171.602 216.448 170.944 215.595 170.443L179.972 153.591C178.421 152.847 177.169 153.643 177.169 155.332V167.787C177.186 168.647 177.448 169.493 177.935 170.255C178.422 171.017 179.119 171.676 179.972 172.177Z" fill="#E9EAF2"/>
<path d="M218.398 185.949V197.451L210.606 186.685L218.398 185.949Z" fill="#E9EAF2"/>
<path d="M184.526 164.156L208.057 175.302V171.76L184.526 160.622V164.156Z" fill="#D9DAE2"/>
<path d="M184.526 169.469L197.135 175.443V171.901L184.526 165.927V169.469Z" fill="#D9DAE2"/>
<path d="M160.47 228.864L215.269 254.816C216.82 255.56 218.072 254.771 218.072 253.075V240.627C218.057 239.765 217.795 238.919 217.308 238.155C216.821 237.391 216.123 236.732 215.269 236.23L160.47 210.278C158.918 209.534 157.667 210.323 157.667 212.019V224.474C157.683 225.335 157.945 226.18 158.432 226.943C158.919 227.705 159.617 228.363 160.47 228.864Z" fill="#E9EAF2"/>
<path d="M218.072 251.721V263.223L210.289 252.457L218.072 251.721Z" fill="#E9EAF2"/>
<path d="M166.076 221.342L204.846 239.705V236.163L166.076 217.8V221.342Z" fill="#D9DAE2"/>
<path d="M166.076 226.654L202.197 243.76V240.218L166.076 223.113V226.654Z" fill="#D9DAE2"/>
<path d="M215.595 281.973L160.47 255.857C159.518 255.347 158.725 254.66 158.156 253.852C157.588 253.045 157.258 252.139 157.195 251.207V245.017C157.195 243.306 158.664 242.614 160.47 243.469L215.595 269.57C216.545 270.081 217.336 270.768 217.903 271.576C218.47 272.384 218.798 273.289 218.861 274.22V280.41C218.861 282.122 217.391 282.814 215.595 281.973ZM160.47 244.355C159.181 243.745 158.129 244.236 158.129 245.456V251.654C158.174 252.319 158.41 252.966 158.816 253.542C159.223 254.119 159.789 254.608 160.47 254.972L215.595 281.072C216.883 281.683 217.927 281.192 217.927 279.971V273.788C217.883 273.124 217.65 272.477 217.245 271.901C216.839 271.324 216.274 270.834 215.595 270.47L160.47 244.355Z" fill="#E9EAF2"/>
<path d="M162.647 253.789L161.712 253.35V247.45L162.647 247.889V253.789Z" fill="#E9EAF2"/>
<path opacity="0.4" d="M328.332 231.461C345.686 231.461 359.754 224.799 359.754 216.58C359.754 208.362 345.686 201.7 328.332 201.7C310.978 201.7 296.909 208.362 296.909 216.58C296.909 224.799 310.978 231.461 328.332 231.461Z" fill="#D6D8E5"/>
<path d="M345.612 212.778C343.426 214.266 340.17 212.905 340.043 213.039C337.478 214.992 334.786 216.83 331.978 218.544C330.618 219.422 328.495 220.598 328.876 222.265C329.566 225.285 335.462 224.355 337.684 223.433C339.907 222.51 341.721 220.977 343.825 219.906C345.331 219.162 346.81 218.745 347.046 217.19C347.2 216.268 346.021 212.734 345.612 212.778Z" fill="#38226D"/>
<path d="M347.028 216.58C346.747 218.068 345.286 218.478 343.798 219.236C341.658 220.323 339.771 221.9 337.548 222.823C335.498 223.671 330.373 224.519 328.931 222.361C329.711 225.278 335.498 224.363 337.703 223.448C339.907 222.532 341.739 220.992 343.844 219.921C345.35 219.177 346.828 218.76 347.064 217.205C347.076 216.996 347.064 216.787 347.028 216.58Z" fill="#9C73FF"/>
<path d="M326.672 206.99C324.486 208.478 320.658 206.856 320.503 206.99C318.224 208.878 315.816 210.659 313.292 212.324C311.931 213.202 309.808 214.378 310.198 216.045C310.879 219.065 316.775 218.135 318.998 217.213C321.22 216.29 323.043 214.757 325.148 213.686C326.645 212.942 328.123 212.525 328.359 210.97C328.495 210.048 327.062 206.953 326.672 206.99Z" fill="#38226D"/>
<path d="M328.286 210.546C328.005 212.034 326.545 212.443 325.057 213.202C322.916 214.296 321.03 215.866 318.807 216.789C316.757 217.644 311.632 218.492 310.189 216.335C310.97 219.244 316.766 218.329 318.961 217.414C321.157 216.498 322.998 214.966 325.112 213.887C326.608 213.143 328.087 212.726 328.323 211.171C328.335 210.962 328.323 210.753 328.286 210.546Z" fill="#9C73FF"/>
<path d="M345.703 146.56C345.603 149.276 344.569 161.046 344.116 167.274C343.662 173.501 343.544 181.142 343.544 181.142C343.544 181.142 344.86 185.681 345.703 191.015C346.547 196.35 345.703 213.187 345.703 213.187C344.869 213.629 343.897 213.864 342.905 213.864C341.912 213.864 340.94 213.629 340.106 213.187C340.106 213.187 336.614 199.713 334.99 193.642C333.366 187.571 333.094 184.074 332.269 180.309C331.253 175.756 329.058 154.506 329.058 154.506L328.15 154.551L325.828 178.553C326.549 180.322 327.045 182.147 327.307 183.999C327.942 187.905 326.635 207.563 326.635 207.563C325.701 207.988 324.642 208.194 323.575 208.157C322.507 208.12 321.472 207.842 320.585 207.354C320.585 207.354 314.743 181.313 314.743 177.363C314.743 174.744 315.287 140.161 315.287 140.161L345.703 146.56Z" fill="#8C50FF"/>
<path d="M337.784 94.2027C337.784 94.2027 337.412 100.11 337.575 100.639C337.739 101.167 340.877 102.871 341.794 103.51C342.71 104.15 336.813 108.905 333.947 109.984C331.08 111.062 321.991 108.22 321.837 104.56C321.683 100.899 323.388 97.8261 324.785 97.6624C326.182 97.4987 337.784 94.2027 337.784 94.2027Z" fill="#FFCEA9"/>
<path d="M320.404 99.4779C320.404 99.4779 318.454 97.03 311.333 110.638C304.212 124.247 299.821 127.818 296.628 131.203C293.744 134.283 292.319 129.388 292.319 129.388C292.319 129.388 294.614 127.014 292.7 127.014C291.63 127.066 290.133 128.874 290.133 128.874L292.573 132.074L298.923 134.715C298.923 134.715 306.697 128.852 309.21 125.236C311.931 122.386 316.004 116.732 316.004 116.732L320.404 99.4779Z" fill="#FFCEA9"/>
<path d="M290.16 131.635C290.088 131.59 288.192 129.782 288.192 129.782C288.192 129.782 287.058 128.971 288.292 128.912C289.525 128.852 293.925 128.845 293.925 128.845C294.375 128.809 294.824 128.913 295.186 129.135C295.739 129.492 302.116 136.114 302.116 136.114C302.116 136.114 302.397 136.515 301.572 136.56C300.747 136.605 295.404 136.56 295.404 136.56L290.16 131.635Z" fill="#20232D"/>
<path d="M289.644 130.519C289.644 130.519 287.766 130.228 288.201 131.709C288.637 133.19 291.331 134.722 291.331 134.722L294.143 136.657C294.487 136.838 294.886 136.934 295.295 136.934C295.703 136.934 296.103 136.838 296.447 136.657C297.173 136.285 298.189 135.273 297.073 134.313C295.957 133.353 294.959 131.248 292.111 131.337C292.111 131.337 291.957 130.779 290.297 130.593" fill="#FFCEA9"/>
<path d="M338.592 101.658C338.592 101.658 333.357 108.042 326.064 108.644C323.769 106.784 323.561 100.17 326.745 98.0567C326.745 98.0567 323.815 96.1148 321.81 96.4943C319.437 97.5455 317.622 99.2783 316.712 101.36C315.369 104.731 314.616 108.614 314.734 114.887C314.852 121.159 314.734 140.31 314.734 140.31C314.734 140.31 315.768 144.365 322.363 147.378C328.958 150.392 333.82 150.682 338.356 149.826C342.048 149.119 345.096 148.055 346.366 145.86C346.039 141.463 343.644 129.998 344.551 124.47C345.458 118.942 346.864 114.797 347.273 110.333C347.681 105.869 346.547 105.951 343.816 104.381C342.158 103.37 340.412 102.46 338.592 101.658Z" fill="#F4F4F4"/>
<path d="M341.512 149.157C342.601 148.16 344.47 142.631 345.54 139.142C346.573 135.224 346.782 131.191 346.157 127.215C345.195 122.453 342.528 115.861 341.775 113.131C341.023 110.4 342.02 109.24 343.499 108.138C345.232 106.844 347.817 107.231 349.486 111.025C351.664 116.273 353.127 121.703 353.849 127.215C354.24 131.321 353.802 135.451 352.552 139.44C351.436 143.16 349.831 145.853 347.708 149.261C347.137 150.183 345.83 152.78 344.987 154.655C344.143 156.53 340.524 150.064 341.512 149.157Z" fill="#FFCEA9"/>
<path d="M321.474 85.3935C322.336 80.8028 326.364 77.3282 332.133 77.5886C334.453 77.6886 336.676 78.3834 338.489 79.575C340.301 80.7666 341.612 82.3949 342.237 84.2302C342.861 86.0655 342.767 88.0153 341.968 89.8045C341.169 91.5937 339.706 93.1321 337.784 94.2027C337.577 94.8963 337.272 95.5679 336.877 96.2042C334.836 98.161 328.668 99.3737 326.899 99.1803C324.622 98.9124 323.397 98.1312 322.309 96.0926C320.404 92.4766 321.003 87.6627 321.474 85.3935Z" fill="#FFCEA9"/>
<path d="M337.784 94.2027L337.258 90.1999C337.258 90.1999 341.24 81.7328 331.815 83.3548C325.593 84.4337 324.032 84.8949 322.145 81.4724C320.259 78.0499 326.926 74.9771 334.845 75.8327C337.583 76.0567 340.118 77.1181 341.945 78.8056C343.772 80.4931 344.758 82.6831 344.706 84.9396C344.452 87.4618 343.635 92.5584 337.784 94.2027Z" fill="#3A2C6D"/>
<path d="M353.904 117.171C353.904 117.171 348.77 121.367 342.683 120.147C341.776 119.663 339.726 109.857 339.726 109.857C339.726 109.857 339.726 104.426 344.805 104.567C349.885 104.708 353.904 117.171 353.904 117.171Z" fill="#EDEDED"/>
<path d="M314.771 111.665C314.771 111.665 311.442 112.007 310.335 110.728C310.535 108.495 314.97 97.1119 321.855 96.4943C320.179 97.7377 318.73 99.1737 317.556 100.758C315.097 104.098 314.771 111.665 314.771 111.665Z" fill="#EDEDED"/>
<path opacity="0.4" d="M31.3682 372C48.6924 372 62.7364 365.351 62.7364 357.149C62.7364 348.947 48.6924 342.298 31.3682 342.298C14.044 342.298 0 348.947 0 357.149C0 365.351 14.044 372 31.3682 372Z" fill="#D6D8E5"/>
<path d="M8.36348 245.91C8.0097 248.41 4.38122 259.191 5.16135 262.888C5.94147 266.586 18.3599 272.762 18.3599 272.762L20.0835 266.437L13.1984 260.909L15.058 250.433L8.36348 245.91Z" fill="#FFCEA9"/>
<path d="M17.9701 235.278C16.761 234.821 15.39 234.744 14.1163 235.061C12.8426 235.378 11.7545 236.066 11.0578 236.996C9.2436 239.481 7.32958 247.993 7.15723 249.451C7.15723 249.451 9.72438 252.353 13.5706 251.869L17.9701 235.278Z" fill="#EDEDED"/>
<path d="M32.1574 355.52C34.8598 356.133 37.7477 355.847 40.1945 354.724C42.1358 354.776 52.6493 351.085 54.0735 354.181C55.3253 356.896 50.7715 359.389 48.3405 359.895C43.0338 360.944 39.106 363.116 36.9742 363.488C35.3868 363.764 33.3458 363.942 32.0577 362.915C30.5428 361.688 30.6698 357.12 32.1574 355.52Z" fill="#2B2A30"/>
<path d="M36.9742 362.737C39.1059 362.365 43.0337 360.192 48.3404 359.143C50.3814 358.734 53.892 356.911 54.2457 354.724C54.7174 357.224 50.6173 359.441 48.3404 359.932C43.0337 360.981 39.1059 363.154 36.9742 363.526C35.3867 363.801 33.3457 363.979 32.0576 362.953C31.73 362.658 31.4935 362.304 31.3682 361.918C32.1604 362.403 33.0798 362.73 34.053 362.872C35.0263 363.014 36.0266 362.968 36.9742 362.737Z" fill="#BF4B4B"/>
<path d="M15.1128 349.24C17.8152 349.853 20.7031 349.567 23.1499 348.444C25.0821 348.496 35.5956 344.806 37.0288 347.901C38.2807 350.617 33.7269 353.109 31.2958 353.615C25.9892 354.672 22.0523 356.837 19.9206 357.209C18.3331 357.484 16.2921 357.663 15.013 356.636C13.4891 355.408 13.607 350.862 15.1128 349.24Z" fill="#2B2A30"/>
<path d="M19.9566 356.457C22.0883 356.085 26.0252 353.913 31.3319 352.864C33.3638 352.454 36.8834 350.632 37.2372 348.444C37.7089 350.944 33.6087 353.161 31.3319 353.652C26.0252 354.709 22.0883 356.874 19.9566 357.246C18.3691 357.521 16.3281 357.7 15.0491 356.673C14.7218 356.377 14.4827 356.023 14.3506 355.639C15.1429 356.124 16.0622 356.45 17.0355 356.592C18.0087 356.734 19.009 356.688 19.9566 356.457Z" fill="#BF4B4B"/>
<path d="M14.904 325.818C15.3534 322.616 16.1642 319.456 17.326 316.377C17.326 316.377 16.6094 308.229 16.2465 300.499C15.8293 291.734 12.1192 284.019 15.0491 277.018L48.0774 283.037C48.0774 283.037 46.0817 318.006 45.6372 322.225C45.3955 325.518 44.9017 328.796 44.1586 332.038C42.6528 338.824 40.2036 354.962 40.2036 354.962C36.7202 356.628 32.1393 355.706 32.1393 355.706C32.1393 355.706 32.3933 335.29 32.6201 330.409C32.8922 324.457 33.1099 324.896 33.1099 324.896L32.0214 310.015L31.3138 302.62C31.3138 302.62 30.4067 308.051 29.808 312.902C29.2819 317.128 27.9938 320.952 26.6512 328.824C25.4447 335.654 23.4854 349.374 23.4854 349.374C20.002 351.033 15.2669 349.657 15.2669 349.657C15.2669 349.657 13.9606 331.741 14.904 325.818Z" fill="#E26161"/>
<path d="M19.7208 235.426C22.2335 235.531 24.1022 236.059 24.4106 235.426C24.6829 234.363 24.8767 233.287 24.9912 232.205C24.7009 231.602 24.4469 230.962 24.4469 230.962C21.2992 229.37 20.3014 226.573 19.9113 223.321C19.2038 217.756 22.8685 212.905 29.6538 212.302C36.0036 211.751 40.7297 215.434 41.9815 220.486C42.6528 222.979 43.9953 227.689 42.1811 231.788C41.1651 234.08 39.8589 235.903 38.5526 236.252C37.2894 236.219 36.0295 236.128 34.779 235.977C34.779 235.977 34.4434 237.517 34.2075 238.514C33.9717 239.511 34.0715 240.002 36.4753 241.245C38.8792 242.487 32.8468 244.965 28.8827 244.719C24.9186 244.474 20.4828 242.487 19.2582 240.419C17.8794 238.112 17.9973 235.359 19.7208 235.426Z" fill="#FFCEA9"/>
<path d="M23.3491 235.732C22.6597 237.16 24.4285 238.901 29.1456 240.114C33.8626 241.327 34.2889 239.764 34.2889 239.764C34.2889 239.764 41.2012 242.353 43.4508 243.641C46.2901 245.263 47.542 249.965 47.923 257.896C48.3674 267.07 48.4037 280.686 48.0318 283.037C48.0318 283.037 42.7433 287.36 35.9671 286.906C29.1909 286.452 17.8247 281.534 15.0398 277.739C15.1124 269.689 16.2645 268.379 14.677 263.744C11.0485 253.134 9.12542 248.789 10.8852 241.736C12.3457 235.925 14.3867 235.203 17.2351 235.255C19.2817 235.327 21.3225 235.486 23.3491 235.732Z" fill="#F4F4F4"/>
<path d="M58.5636 265.485C53.012 266.631 51.7057 263.759 50.971 261.378C49.2112 255.612 48.2496 250.411 46.9343 247.137C45.3831 243.283 43.7594 242.673 41.4916 241.929C38.7702 241.051 36.5024 242.911 37.3914 247.822C38.4527 253.625 39.8406 257.703 42.4803 264.577C43.1788 266.371 44.73 269.555 47.0159 271.095C49.8824 273 54.2003 272.918 60.7316 271.586C63.5164 271.013 66.5734 269.652 71.8438 267.635C73.2771 267.092 74.3838 266.72 77.1051 265.679C79.8324 264.673 82.2226 263.142 84.0718 261.214C85.496 259.525 85.242 258.447 84.9789 258.067C84.7158 257.688 84.4074 257.97 83.6454 258.677C82.5485 259.881 81.1928 260.909 79.6451 261.713C79.6451 261.713 81.4049 260.225 82.3664 259.258C83.2171 258.401 83.9248 257.455 84.4709 256.445C84.9698 255.456 83.9357 254.116 83.1465 254.823C82.3573 255.53 81.9854 256.237 80.5522 257.651C79.7773 258.4 78.8973 259.072 77.9306 259.652C78.8215 258.662 79.6133 257.614 80.2982 256.52C81.2053 254.994 78.1664 255.776 76.4248 257.264C75.1548 258.342 74.0753 258.967 74.039 258.67C74.0028 258.372 71.5354 260.552 70.2745 261.646C69.0136 262.74 63.8521 264.391 58.5636 265.485Z" fill="#FFCEA9"/>
<path d="M39.4146 241.133C43.1247 240.679 45.7644 242.048 47.3882 246.661C49.0119 251.274 50.173 255.061 50.173 255.061C48.7053 256.8 46.4818 258.011 43.9592 258.447C39.5144 259.325 37.9178 257.591 37.9178 257.591C37.9178 257.591 36.6841 252.755 35.9222 249.466C35.1602 246.178 34.8246 241.684 39.4146 241.133Z" fill="#EDEDED"/>
<path d="M41.7276 219.772C41.7276 219.772 47.5876 212.458 34.8879 210.97C25.726 209.899 19.8388 214.728 19.1584 219.966C18.5053 224.973 22.2608 230.166 24.9822 232.235C26.3066 232.621 29.1549 232.845 32.9013 231.446C33.0506 230.083 33.1082 228.714 33.0737 227.346C33.0737 227.346 28.6106 219.638 41.7276 219.772Z" fill="#2B2A30"/>
<path d="M71.4992 259.734C71.4992 259.734 70.0569 257.584 70.9731 257.048C71.8893 256.512 73.1956 258.536 73.4586 259.317C73.7217 260.098 73.3588 259.079 73.3588 259.079C73.3588 259.079 72.3701 256.646 73.0141 256.177C73.6582 255.709 74.52 256.75 75.3817 258.276C76.2435 259.801 75.5904 258.149 75.5904 258.149C75.5904 258.149 74.1662 255.709 74.7739 255.366C75.5904 254.92 76.9329 256.363 77.7312 257.665C78.5294 258.967 76.6608 260.515 76.6608 260.515L71.4992 259.734Z" fill="#FFCEA9"/>
<path d="M74.284 263.58L68.9411 261.028C68.4785 260.813 68.542 260.441 69.0681 260.188L82.0762 254.027C82.3511 253.9 82.659 253.828 82.9745 253.817C83.29 253.807 83.604 253.858 83.8904 253.968L89.2787 256.52C89.7323 256.735 89.6779 257.115 89.1517 257.36L76.062 263.521C75.7924 263.645 75.4907 263.715 75.1817 263.726C74.8727 263.736 74.5651 263.686 74.284 263.58Z" fill="#B1B4C4"/>
<path d="M68.5874 260.664V260.255L69.168 260.433L68.5874 260.664Z" fill="#B1B4C4"/>
<path d="M89.5056 256.869V256.482L89.043 256.72L89.5056 256.869Z" fill="#B1B4C4"/>
<path d="M74.284 263.238L68.9411 260.686C68.4785 260.47 68.542 260.091 69.0681 259.845L82.0308 253.7C82.3049 253.57 82.6131 253.498 82.929 253.487C83.245 253.477 83.5593 253.529 83.8451 253.64L89.2334 256.192C89.6869 256.408 89.6325 256.78 89.1064 257.033L76.0983 263.194C75.8219 263.319 75.5132 263.388 75.1977 263.396C74.8822 263.403 74.569 263.349 74.284 263.238Z" fill="#616E84"/>
<path d="M69.8165 262.256C69.8426 262.244 69.8415 262.202 69.814 262.163C69.7866 262.124 69.7432 262.102 69.7171 262.114C69.691 262.127 69.6922 262.168 69.7196 262.207C69.7471 262.247 69.7905 262.268 69.8165 262.256Z" fill="#757B89"/>
<path d="M69.7958 261.333C69.8219 261.32 69.8207 261.278 69.7931 261.239C69.7655 261.2 69.7221 261.178 69.6961 261.191C69.67 261.203 69.6713 261.245 69.6988 261.284C69.7264 261.323 69.7698 261.345 69.7958 261.333Z" fill="#757B89"/>
<path d="M70.0566 261.464C70.0826 261.452 70.0814 261.41 70.0538 261.371C70.0263 261.332 69.9828 261.31 69.9568 261.323C69.9308 261.335 69.932 261.377 69.9596 261.416C69.9871 261.455 70.0306 261.477 70.0566 261.464Z" fill="#757B89"/>
<path d="M70.3207 261.579C70.3468 261.566 70.3455 261.525 70.318 261.485C70.2904 261.446 70.247 261.425 70.221 261.437C70.1949 261.449 70.1962 261.491 70.2237 261.53C70.2513 261.569 70.2947 261.591 70.3207 261.579Z" fill="#757B89"/>
<path d="M72.5449 262.639C72.5709 262.626 72.5697 262.585 72.5421 262.545C72.5146 262.506 72.4711 262.485 72.4451 262.497C72.4191 262.509 72.4203 262.551 72.4478 262.59C72.4754 262.629 72.5188 262.651 72.5449 262.639Z" fill="#757B89"/>
<path d="M72.8046 262.759C72.8307 262.747 72.8294 262.705 72.8019 262.666C72.7743 262.627 72.7309 262.605 72.7048 262.618C72.6788 262.63 72.68 262.672 72.7076 262.711C72.7352 262.75 72.7786 262.772 72.8046 262.759Z" fill="#757B89"/>
<path d="M73.061 262.885C73.087 262.872 73.0858 262.831 73.0582 262.792C73.0307 262.752 72.9872 262.731 72.9612 262.743C72.9352 262.755 72.9364 262.797 72.9639 262.836C72.9915 262.875 73.0349 262.897 73.061 262.885Z" fill="#757B89"/>
<path d="M73.3203 263.005C73.3463 262.993 73.3451 262.951 73.3175 262.912C73.29 262.873 73.2465 262.851 73.2205 262.864C73.1944 262.876 73.1957 262.918 73.2232 262.957C73.2508 262.996 73.2942 263.018 73.3203 263.005Z" fill="#757B89"/>
<path d="M71.7441 262.293L71.0274 261.958C71.0024 261.943 70.982 261.922 70.9678 261.899C70.9537 261.876 70.9461 261.85 70.9458 261.825C70.9458 261.78 70.9458 261.758 71.0274 261.78L71.7441 262.115C71.769 262.129 71.7894 262.148 71.8036 262.17C71.8178 262.192 71.8254 262.216 71.8257 262.241C71.8257 262.293 71.7894 262.316 71.7441 262.293Z" fill="#757B89"/>
<path d="M87.873 257.837L87.2108 258.149C87.2108 258.149 87.1382 258.149 87.1382 258.104C87.14 258.082 87.1473 258.059 87.1598 258.039C87.1722 258.018 87.1896 258 87.2108 257.985L87.873 257.673C87.873 257.673 87.9546 257.673 87.9546 257.717C87.9544 257.741 87.9467 257.765 87.9325 257.786C87.9182 257.806 87.8977 257.824 87.873 257.837Z" fill="#757B89"/>
<path d="M86.8569 258.32L86.1947 258.633C86.1947 258.633 86.1221 258.633 86.1221 258.588C86.1214 258.565 86.1276 258.542 86.1403 258.521C86.1529 258.5 86.1716 258.482 86.1947 258.469L86.8569 258.156C86.8569 258.156 86.9385 258.156 86.9385 258.201C86.9375 258.225 86.9296 258.248 86.9154 258.269C86.9012 258.289 86.8811 258.307 86.8569 258.32Z" fill="#757B89"/>
<path d="M74.284 263.179L68.9411 260.627C68.4785 260.411 68.542 260.031 69.0681 259.778L82.0762 253.618C82.3511 253.49 82.659 253.419 82.9745 253.408C83.29 253.398 83.604 253.449 83.8904 253.558L89.2787 256.11C89.7323 256.326 89.6779 256.706 89.1517 256.951L76.1436 263.112C75.8645 263.248 75.5486 263.325 75.2241 263.337C74.8996 263.348 74.5767 263.294 74.284 263.179Z" fill="#20232D"/>
<path d="M88.6169 256.215L86.5214 255.188C86.3814 255.248 86.2258 255.279 86.0678 255.279C85.9099 255.279 85.7543 255.248 85.6143 255.188C85.3603 255.069 85.3603 254.883 85.6143 254.764L83.5188 253.767C83.3384 253.693 83.1397 253.655 82.9383 253.655C82.7369 253.655 82.5382 253.693 82.3577 253.767L69.658 259.764C69.3405 259.92 69.3405 260.165 69.658 260.314L74.7651 262.732C74.944 262.806 75.1412 262.844 75.3411 262.844C75.5411 262.844 75.7383 262.806 75.9172 262.732L88.6169 256.728C88.9434 256.609 88.9434 256.363 88.6169 256.215Z" fill="#2B303F"/>
<path opacity="0.5" d="M88.6169 256.215L86.5214 255.188C86.3814 255.248 86.2258 255.279 86.0678 255.279C85.9099 255.279 85.7543 255.248 85.6143 255.188C85.3603 255.069 85.3603 254.883 85.6143 254.764L83.5188 253.767C83.3384 253.693 83.1397 253.655 82.9383 253.655C82.7369 253.655 82.5382 253.693 82.3577 253.767L69.658 259.764C69.3405 259.92 69.3405 260.165 69.658 260.314L74.7651 262.732C74.944 262.806 75.1412 262.844 75.3411 262.844C75.5411 262.844 75.7383 262.806 75.9172 262.732L88.6169 256.728C88.9434 256.609 88.9434 256.363 88.6169 256.215Z" fill="url(#paint0_linear_310_1409)"/>
<path d="M85.9227 255.18C86.0579 255.18 86.1676 255.13 86.1676 255.069C86.1676 255.007 86.0579 254.957 85.9227 254.957C85.7874 254.957 85.6777 255.007 85.6777 255.069C85.6777 255.13 85.7874 255.18 85.9227 255.18Z" fill="#2B303F"/>
<path opacity="0.1" d="M85.8501 255.106C85.8501 255.106 85.8501 255.054 85.8501 255.039C85.8718 255.028 85.897 255.022 85.9227 255.022C85.9484 255.022 85.9735 255.028 85.9952 255.039C85.9952 255.039 85.9952 255.084 85.9952 255.106C85.9486 255.121 85.8968 255.121 85.8501 255.106Z" fill="white"/>
<path d="M82.6566 262.561C82.6566 262.561 85.505 260.456 85.378 257.665C85.2056 255.723 83.7724 257.122 83.7724 257.122L82.3301 259.265C81.6148 260.056 80.6826 260.699 79.6087 261.14C78.5979 261.22 77.5928 261.341 76.5971 261.505C74.8282 261.787 73.0684 263.603 73.0684 263.603L75.2908 265.039L82.6566 262.561Z" fill="#FFCEA9"/>
<path d="M69.4401 163.955L16.9995 139.12C16.4957 138.835 15.9201 138.647 15.3154 138.569C14.7108 138.492 14.0927 138.528 13.5071 138.673C13.2833 138.749 13.0728 138.849 12.8812 138.971L7.03027 141.716L11.5659 146.084V164.015C11.6677 165.566 12.2135 167.075 13.1591 168.421C14.1047 169.766 15.4235 170.91 17.0086 171.76L33.3368 180.175L37.7726 188.515L33.1009 195.011L39.605 191.96L45.7824 186.075L65.4942 194.832L66.5555 200.04L73.1956 196.93L73.377 196.841H73.4405C73.9473 196.506 74.3451 196.073 74.5983 195.581C74.8516 195.089 74.9524 194.553 74.8919 194.021V171.7C74.7891 170.149 74.2419 168.639 73.2946 167.293C72.3474 165.948 71.0269 164.804 69.4401 163.955Z" fill="#FF7B7B"/>
<path d="M62.9453 167.006L10.5047 142.178C7.49309 140.749 5.06201 141.902 5.06201 144.752V167.073C5.16385 168.624 5.70968 170.133 6.65528 171.479C7.60087 172.824 8.91964 173.968 10.5047 174.818L26.8329 183.24L33.1011 195.018L39.2786 189.133L62.9363 199.654C65.9479 201.075 68.379 199.922 68.379 197.072V174.751C68.2782 173.201 67.7337 171.692 66.7897 170.346C65.8457 169.001 64.5288 167.856 62.9453 167.006Z" fill="#E26D6D"/>
<path d="M366.522 25.477L313.972 0.596715C313.468 0.309531 312.891 0.119542 312.285 0.0409496C311.679 -0.0376427 311.058 -0.00280491 310.471 0.142859C310.245 0.215595 310.034 0.315935 309.845 0.440469L303.985 3.19337L308.52 7.56081V25.5365C308.622 27.0896 309.167 28.6013 310.113 29.9494C311.058 31.2975 312.377 32.4442 313.963 33.2967L330.337 41.734L334.782 50.0894L330.11 56.5996L336.632 53.5565L342.819 47.6564L362.558 56.4359L363.628 61.6441L370.277 58.5192L370.459 58.4374H370.522C371.032 58.1037 371.432 57.6712 371.687 57.1789C371.942 56.6866 372.044 56.15 371.983 55.6175V33.2967C371.891 31.732 371.348 30.2076 370.398 28.8483C369.449 27.489 368.121 26.3336 366.522 25.477Z" fill="#8C50FF"/>
<path opacity="0.2" d="M366.522 25.477L313.972 0.596715C313.468 0.309531 312.891 0.119542 312.285 0.0409496C311.679 -0.0376427 311.058 -0.00280491 310.471 0.142859C310.245 0.215595 310.034 0.315935 309.845 0.440469L303.985 3.19337L308.52 7.56081V25.5365C308.622 27.0896 309.167 28.6013 310.113 29.9494C311.058 31.2975 312.377 32.4442 313.963 33.2967L330.337 41.734L334.782 50.0894L330.11 56.5996L336.632 53.5565L342.819 47.6564L362.558 56.4359L363.628 61.6441L370.277 58.5192L370.459 58.4374H370.522C371.032 58.1037 371.432 57.6712 371.687 57.1789C371.942 56.6866 372.044 56.15 371.983 55.6175V33.2967C371.891 31.732 371.348 30.2076 370.398 28.8483C369.449 27.489 368.121 26.3336 366.522 25.477Z" fill="black"/>
<path d="M360 28.5349L307.459 3.65468C304.448 2.22614 302.017 3.38683 302.017 6.24389V28.5647C302.118 30.1178 302.663 31.6295 303.609 32.9776C304.554 34.3257 305.873 35.4724 307.459 36.3249L323.842 44.7919L330.128 56.5996L336.315 50.6995L360.009 61.2349C363.029 62.6634 365.451 61.5102 365.451 58.6531V36.3323C365.357 34.7721 364.814 33.2522 363.866 31.8971C362.919 30.5419 361.594 29.3898 360 28.5349Z" fill="#8C50FF"/>
<path d="M319.301 27.5273C320.772 26.8308 320.773 24.5728 319.302 22.4839C317.832 20.395 315.447 19.2662 313.977 19.9627C312.506 20.6592 312.505 22.9172 313.976 25.0061C315.446 27.095 317.831 28.2238 319.301 27.5273Z" fill="white"/>
<path d="M336.197 35.0536C337.675 34.3571 337.68 32.0913 336.21 29.9928C334.74 27.8943 332.35 26.7578 330.872 27.4543C329.395 28.1508 329.389 30.4166 330.859 32.5151C332.33 34.6136 334.719 35.7501 336.197 35.0536Z" fill="white"/>
<path d="M350.468 42.294C351.939 41.5975 351.94 39.3395 350.469 37.2505C348.999 35.1616 346.614 34.0328 345.144 34.7293C343.673 35.4258 343.672 37.6839 345.143 39.7728C346.613 41.8617 348.998 42.9905 350.468 42.294Z" fill="white"/>
<path d="M276.2 72.053C276.2 66.8448 271.728 60.4685 266.221 57.857C263.282 56.4656 260.652 56.4284 258.828 57.4701L255.508 59.0102L256.923 59.4715C256.437 60.4615 256.2 61.5219 256.225 62.589C256.225 67.7972 260.697 74.166 266.203 76.785C267.053 77.1984 267.969 77.5115 268.925 77.715V79.3445L273.206 77.3653C275.093 76.48 276.2 74.6496 276.2 72.053Z" fill="#DD990E"/>
<path d="M269.61 79.1023C273.51 77.2552 273.509 71.2633 269.606 65.719C265.703 60.1747 259.377 57.1774 255.477 59.0245C251.577 60.8715 251.578 66.8635 255.481 72.4078C259.384 77.9521 265.709 80.9494 269.61 79.1023Z" fill="#F9CB07"/>
<path d="M259.605 66.4991C260.16 66.2361 260.16 65.3825 259.603 64.5925C259.047 63.8025 258.146 63.3752 257.591 63.6382C257.036 63.9012 257.036 64.7548 257.592 65.5448C258.148 66.3348 259.049 66.7621 259.605 66.4991Z" fill="#CC8B09"/>
<path d="M267.353 70.1593C267.908 69.8963 267.908 69.0426 267.352 68.2526C266.795 67.4626 265.894 67.0354 265.339 67.2984C264.784 67.5613 264.784 68.415 265.34 69.205C265.896 69.995 266.798 70.4222 267.353 70.1593Z" fill="#CC8B09"/>
<path d="M258.602 70.1185C258.602 70.1185 259.908 73.05 262.539 74.2925C265.17 75.535 266.712 73.9577 266.712 73.9577L258.602 70.1185Z" fill="#CC8B09"/>
<path d="M90.6396 227.897L96.2819 230.575V218.649L90.6396 215.978V227.897Z" fill="#4399FF"/>
<path d="M96.2819 218.664L90.6396 215.985L95.2115 213.82L101.081 216.513L96.2819 218.664Z" fill="#70B6FC"/>
<path d="M117.708 227.168C117.684 226.605 117.489 226.057 117.14 225.572C116.792 225.087 116.301 224.682 115.712 224.392L109.099 221.26L110.152 217.19V216.885C110.155 216.452 110.082 216.021 109.934 215.606C109.734 215.07 109.027 213.798 108.573 214.058L101.652 217.339C101.235 217.436 101.026 217.83 101.026 218.425V228.403C101.069 228.998 101.28 229.578 101.644 230.094C102.008 230.611 102.514 231.051 103.121 231.379L112.564 235.843C113.399 236.237 114.134 236.089 114.451 235.545L117.599 229.98C117.693 229.774 117.73 229.553 117.708 229.333V227.168Z" fill="#FFCEA9"/>
<path d="M110.759 237.48L114.088 235.88L111.059 232.51L110.759 237.48Z" fill="#FFCEA9"/>
<path d="M114.533 228.686C114.507 228.124 114.311 227.576 113.962 227.091C113.614 226.607 113.124 226.201 112.537 225.91L105.924 222.785L106.977 218.708V218.411C106.98 217.975 106.907 217.542 106.759 217.123C106.559 216.588 105.852 215.323 105.398 215.576L98.477 218.857C98.0597 218.954 97.8511 219.355 97.8511 219.951V229.891C97.8923 230.487 98.1034 231.066 98.4673 231.583C98.8312 232.1 99.3379 232.54 99.9465 232.867L109.39 237.331C110.224 237.733 110.959 237.584 111.276 237.034L114.424 231.468C114.518 231.262 114.556 231.041 114.533 230.821V228.686Z" fill="#EFBD9C"/>
<defs>
<linearGradient id="paint0_linear_310_1409" x1="64.6866" y1="268.032" x2="69.7397" y2="257.312" gradientUnits="userSpaceOnUse">
<stop offset="0.21" stop-color="white" stop-opacity="0"/>
<stop offset="1" stop-color="white" stop-opacity="0.2"/>
</linearGradient>
</defs>
</svg>
