<svg width="372" height="372" viewBox="0 0 372 372" fill="none" xmlns="http://www.w3.org/2000/svg">
<path d="M313.655 304.54L232.803 258.166C225.953 254.245 220.4 243.71 220.4 234.648V10.7791C220.4 1.71722 225.953 -2.44918 232.803 1.47914L313.655 47.8154C320.505 51.7437 326.058 62.2787 326.058 71.3406V295.232C326.058 304.294 320.505 308.468 313.655 304.54Z" fill="#B1B4C4"/>
<path d="M315.042 308.58L321.449 305.366L315.304 294.905L315.042 308.58Z" fill="#B1B4C4"/>
<path d="M219.141 3.71114L225.039 0.638428L223.848 9.26882L219.141 3.71114Z" fill="#B1B4C4"/>
<path d="M308.498 307.099L227.647 260.755C220.797 256.834 215.244 246.299 215.244 237.237V13.3385C215.244 4.27656 220.797 0.110171 227.647 4.03104L308.498 50.3747C315.348 54.303 320.902 64.8306 320.902 73.9V297.792C320.902 306.861 315.348 311.027 308.498 307.099Z" fill="#616E84"/>
<path d="M320.018 74.4728V298.342C320.018 307.419 314.472 311.578 307.622 307.657L275.912 289.481L266.057 283.849L226.786 261.328C219.936 257.4 214.39 246.872 214.39 237.803V13.9113C214.39 4.84199 219.936 0.683031 226.786 4.60391L307.644 50.9402C314.494 54.8759 320.018 65.3961 320.018 74.4728Z" fill="#20232D"/>
<path d="M314.21 72.1665V290.233C314.21 295.716 310.335 297.955 305.538 295.203L280.297 280.747L278.048 279.467L277.299 279.028L271.835 275.903L256.022 266.849L249.464 263.092L246.826 261.604L228.907 251.336C224.118 248.591 220.235 241.91 220.235 236.404V18.3233C220.235 12.8252 224.118 10.6006 228.907 13.346L260.474 31.44V31.5293C260.474 35.8073 263.471 41.0079 267.219 43.1431C270.966 45.2784 273.964 43.5449 273.964 39.2743C273.964 39.2743 273.964 39.2074 273.964 39.1776L305.538 57.2865C310.335 60.017 314.21 66.6981 314.21 72.1665Z" fill="white"/>
<path d="M269.037 40.8923C270.037 40.3191 270.036 38.4582 269.034 36.7359C268.032 35.0136 266.41 34.082 265.409 34.6552C264.409 35.2284 264.411 37.0893 265.412 38.8116C266.414 40.5339 268.037 41.4655 269.037 40.8923Z" fill="#2B303F"/>
<path opacity="0.1" d="M267.218 39.0065C266.904 38.8045 266.642 38.5312 266.454 38.2091C266.267 37.8871 266.159 37.5254 266.139 37.1539C266.139 36.4769 266.619 36.2016 267.218 36.5438C267.533 36.7443 267.796 37.016 267.985 37.3367C268.174 37.6574 268.284 38.018 268.305 38.3889C268.305 39.066 267.81 39.3413 267.218 39.0065Z" fill="white"/>
<path d="M323.323 103.928C322.663 104.307 322.131 103.928 322.131 103.035V93.4895C322.143 93.0514 322.257 92.622 322.464 92.2348C322.67 91.8476 322.964 91.5131 323.323 91.2575C323.983 90.878 324.515 91.2575 324.515 92.1577V101.703C324.502 102.14 324.388 102.568 324.181 102.954C323.975 103.34 323.681 103.673 323.323 103.928Z" fill="#757B89"/>
<path d="M323.323 119.574C322.663 119.946 322.131 119.574 322.131 118.674V109.128C322.138 108.684 322.249 108.247 322.456 107.853C322.663 107.459 322.96 107.119 323.323 106.859C323.983 106.487 324.515 106.859 324.515 107.759V117.305C324.508 117.749 324.397 118.186 324.19 118.58C323.983 118.974 323.686 119.314 323.323 119.574Z" fill="#757B89"/>
<path d="M299.033 276.617L235.441 240.161C232.144 238.272 229.446 233.19 229.446 228.823V111.598C229.446 107.224 232.129 105.215 235.441 107.134L299.033 143.59C302.338 145.488 305.028 150.562 305.028 154.936V272.191C305.028 276.498 302.315 278.507 299.033 276.617Z" fill="#E9EAF2"/>
<path d="M259.948 157.978C264.618 155.301 264.618 146.62 259.947 138.589C255.276 130.557 247.703 126.217 243.032 128.894C238.362 131.571 238.362 140.252 243.033 148.283C247.704 156.315 255.277 160.655 259.948 157.978Z" fill="#CED0DB"/>
<path d="M295.286 166.959L270.688 152.861V147.147L295.286 161.246V166.959Z" fill="#CED0DB"/>
<path d="M289.612 173.983L270.688 163.143V157.429L289.612 168.276V173.983Z" fill="#CED0DB"/>
<path d="M295.286 199.941L239.534 167.986V162.28L295.286 194.227V199.941Z" fill="#CED0DB"/>
<path d="M282.418 202.85L239.534 178.268V172.554L282.418 197.136V202.85Z" fill="#CED0DB"/>
<path d="M295.091 220.393L239.339 188.439V182.725L295.091 214.679V220.393Z" fill="#CED0DB"/>
<path d="M282.23 223.302L239.339 198.721V193.007L282.23 217.589V223.302Z" fill="#CED0DB"/>
<path d="M295.091 240.957L239.339 209.003V203.289L295.091 235.244V240.957Z" fill="#CED0DB"/>
<path d="M294.596 261.231L238.844 229.277V223.57L294.596 255.518V261.231Z" fill="#CED0DB"/>
<path d="M282.23 243.867L239.339 219.285V213.571L282.23 238.153V243.867Z" fill="#CED0DB"/>
<path d="M247.028 100.699C246.766 100.523 246.545 100.293 246.381 100.025C246.217 99.7563 246.113 99.4559 246.076 99.1439L242.074 52.6589L238.927 72.6055C238.852 73.104 238.439 73.2676 237.96 72.9924L230.308 68.6028C230.023 68.4167 229.787 68.1669 229.618 67.8736C229.449 67.5802 229.351 67.2515 229.333 66.9139C229.333 66.2964 229.776 66.0434 230.315 66.3485L237.135 70.2619L241.325 43.597C241.4 43.091 241.842 42.9348 242.322 43.2324C242.579 43.4106 242.796 43.6404 242.959 43.9069C243.121 44.1734 243.226 44.4708 243.266 44.7799L247.193 90.5805L250.94 63.1567C251.008 62.6508 251.405 62.4797 251.877 62.7326C252.139 62.8971 252.362 63.1147 252.533 63.3712C252.703 63.6277 252.817 63.9172 252.866 64.2206L257.363 90.9525L261.74 55.9846C261.8 55.4638 262.22 55.2852 262.707 55.5605C262.966 55.7254 263.188 55.9434 263.356 56.2C263.524 56.4566 263.635 56.7459 263.681 57.0485L268.882 102.373L273.199 80.0529C273.289 79.5916 273.679 79.4428 274.143 79.6884C274.633 80.0129 274.975 80.5151 275.095 81.0871L279.487 103.556L283.422 69.7337C283.482 69.2203 283.886 69.0268 284.374 69.2947C284.638 69.4558 284.864 69.6725 285.035 69.9296C285.206 70.1867 285.318 70.4779 285.363 70.7827L290.197 106.495L293.584 90.8707C293.674 90.4243 294.049 90.2755 294.491 90.5061C294.736 90.6535 294.949 90.8478 295.118 91.0777C295.286 91.3076 295.407 91.5686 295.473 91.8453L298.741 105.185L305.763 109.099C306.048 109.282 306.285 109.528 306.455 109.819C306.626 110.11 306.725 110.437 306.745 110.773C306.745 111.398 306.325 111.658 305.778 111.36L298.036 107.045C297.57 106.737 297.235 106.268 297.099 105.728L294.724 96.0563L291.029 113.168C290.931 113.637 290.519 113.793 290.047 113.488C289.794 113.319 289.579 113.1 289.416 112.843C289.254 112.587 289.147 112.3 289.103 112L284.538 78.3194L280.791 110.572C280.731 111.07 280.349 111.264 279.877 111.026C279.616 110.872 279.39 110.666 279.216 110.42C279.041 110.173 278.922 109.893 278.865 109.597L274.301 86.0495L269.699 109.791C269.602 110.274 269.175 110.408 268.702 110.125C268.452 109.954 268.239 109.733 268.076 109.478C267.914 109.222 267.806 108.936 267.758 108.637L262.759 64.9944L258.562 98.3478C258.502 98.8538 258.105 99.0398 257.625 98.7868C257.365 98.6203 257.142 98.4022 256.971 98.1462C256.799 97.8901 256.683 97.6016 256.629 97.2988L252.132 70.3214L248.01 100.267C247.928 100.803 247.515 100.974 247.028 100.699Z" fill="#CED0DB"/>
<path d="M257.918 75.455C259.484 72.9552 271.461 71.311 275.395 81.407C276.894 85.2238 276.662 94.985 277.913 101.123C279.165 107.261 282.103 110.728 283.16 115.705C284.216 120.683 282.493 129.016 270.419 130.489C258.345 131.962 249.052 127.758 246.204 123.934C243.356 120.11 243.289 111.985 246.256 107.626C249.224 103.266 251.465 99.7094 251.398 94.0327L257.918 75.455Z" fill="#2B2A30"/>
<path d="M265.825 73.7215C265.825 73.7215 256.831 71.1398 251.345 75.9535C246.346 80.3728 246.766 86.3695 247.493 89.219C248.22 92.0685 249.674 95.915 251.937 96.1159C254.201 96.3167 265.825 73.7215 265.825 73.7215Z" fill="#2B2A30"/>
<path d="M269.272 98.1246C269.272 98.1246 268.68 108.102 268.86 108.831C269.04 109.56 272.81 110.274 273.859 111.145C274.908 112.015 268.396 122.133 265.083 123.636C261.77 125.139 251.503 121.308 250.791 116.196C250.139 111.531 253.729 107.908 255.115 106.643C256.057 106.553 257.003 106.529 257.948 106.569L258.248 101.733C262.745 100.349 269.272 98.1246 269.272 98.1246Z" fill="#FFCEA9"/>
<path d="M244.975 116.97C244.915 116.695 243.476 117.498 243.438 117.521C243.401 117.543 242.726 143.114 241.452 145.428C238.245 150.867 229.716 160.055 229.506 161.089C228.876 164.192 230.69 161.409 233.621 161.089C235.269 160.888 244.945 151.164 247.111 148.947L247.246 149.029C247.246 148.94 247.246 148.858 247.283 148.776L247.568 148.486C247.647 147.799 247.669 147.108 247.635 146.418C251.66 118.614 246.714 116.762 244.975 116.97Z" fill="#FFCEA9"/>
<path d="M242.779 120.898L242.269 133.219L241.452 142.928C241.452 142.928 241.61 144.23 240.171 146.507C238.732 148.784 231.042 158.24 231.042 158.24L234.52 161.104L242.442 154.646L247.688 119.857L244.93 116.472L242.779 120.898Z" fill="white"/>
<path d="M270.651 109.805C273.469 110.237 276.699 111.732 277.141 113.265C277.658 115.058 278.775 123.495 276.332 129.916C273.889 136.336 272.24 140.421 270.838 143.181C270.838 143.181 258.622 148.389 248.774 142.318C248.774 142.318 248.1 135.444 248.025 131.761C238.934 123.889 246.706 114.18 254.403 106.643C255.324 106.55 256.252 106.537 257.176 106.606C257.176 106.606 250.311 114.671 255.085 119.254C265.345 116.182 267.376 111.598 270.651 109.805Z" fill="#F4F4F4"/>
<path d="M250.498 85.7668C251.517 79.361 256.179 74.5176 262.834 74.9045C265.512 75.0502 268.075 76.0275 270.163 77.6983C272.251 79.369 273.757 81.6487 274.468 84.2153C275.18 86.7819 275.061 89.5056 274.129 92.0015C273.196 94.4974 271.497 96.6393 269.272 98.1247C269.039 99.0957 268.695 100.037 268.245 100.93C265.885 103.653 259.619 105.394 257.551 105.394C255.767 105.394 254.223 103.757 252.552 101.004C249.059 95.29 249.944 88.9363 250.498 85.7668Z" fill="#FFCEA9"/>
<path d="M264.895 75.0234C269.565 75.9311 273.409 77.2554 274.676 81.7864C275.545 84.9186 276.677 90.9004 275.598 93.4151L274.923 95.2304L269.272 98.1246C269.272 98.1246 266.634 95.9447 267.451 89.5463C267.425 88.679 267.15 87.8373 266.657 87.1208C266.317 86.5139 266.065 85.8628 265.907 85.1865C265.338 83.4009 263.891 82.2105 262.242 81.2507C258.03 78.9071 251.87 80.9308 251 81.7789C253.818 75.9906 259.469 73.9669 264.895 75.0234Z" fill="#2B2A30"/>
<path d="M281.466 176.46C280.716 184.555 276.175 218.958 276.175 218.958C277.955 224.748 278.899 230.76 278.978 236.813C278.933 241.821 277.614 250.317 276.122 258.189L273.506 276.9L267.264 273.314L267.511 259.364C267.189 254.692 266.724 247.795 266.424 243.383C265.937 236.211 264.64 224.783 264.266 221.971C263.891 219.158 262.977 214.159 262.534 208.579C262.092 202.999 259.979 174.69 259.979 174.69L259.687 179.994C259.687 179.994 259.409 188.61 258.188 199.219C256.966 209.829 256.494 214.56 256.494 214.56C256.494 214.56 258.66 218.504 258.937 221.413C259.162 223.712 261.8 241.865 260.219 251.106L257.903 267.935L250.408 263.664L249.441 251.649C248.16 242.646 245.454 223.555 245.035 221.07C244.495 217.804 244.045 216.197 243.416 205.93C242.786 195.663 243.019 173.365 244.06 165.278C245.102 157.191 248.107 145.443 248.107 145.443C250.944 146.766 254.015 147.524 257.146 147.675C262.392 147.943 270.823 146.358 270.823 146.358C272.295 148.91 273.903 151.381 275.642 153.761C278.003 156.982 282.545 164.073 281.466 176.46Z" fill="#FFCEA9"/>
<path d="M270.838 143.181L277.853 157.176C277.853 157.176 288.563 172.733 277.464 212.73L279.547 225.066C279.547 225.066 258.562 238.458 244.495 225.066C244.495 225.066 239.616 188.104 242.209 171.059C243.649 161.256 245.836 151.576 248.752 142.102C248.752 142.102 252.192 145.874 269.902 143.382" fill="#E26161"/>
<path d="M254.433 106.643C254.433 106.643 244.045 108.325 242.779 120.898L245.155 118.54C245.155 118.54 250.978 109.791 254.433 106.643Z" fill="white"/>
<path d="M257.206 106.606C254.523 111.747 247.463 120.147 249.464 129.239C252.117 141.358 247.036 213.98 247.036 213.98C247.036 213.98 241.04 210.208 241.04 207.187C241.04 204.167 243.288 125.779 243.288 122.067C243.288 118.354 249.854 111.762 254.313 106.614C255.493 106.193 256.739 105.989 257.993 106.011C257.993 106.286 257.993 106.324 257.955 106.606C257.73 106.621 257.603 106.606 257.206 106.606Z" fill="white"/>
<path d="M210.912 173.142L234.895 159.304L252.117 169.177L228.127 183.015L210.912 173.142Z" fill="#F4F4F4"/>
<path d="M231.799 160.315C230.3 160.658 228.801 160.769 227.542 161.699C227.077 162.111 226.576 162.479 226.043 162.8C225.804 162.927 225.571 163.076 225.294 163.18C224.926 163.307 224.596 163.525 224.335 163.812C224.062 164.199 223.914 164.658 223.907 165.129C223.79 165.697 223.762 166.279 223.825 166.855C224.035 167.711 224.927 167.644 225.399 167.049C225.637 166.751 225.776 166.387 225.796 166.007C225.808 165.646 225.906 165.292 226.082 164.975C226.257 164.658 226.506 164.387 226.808 164.184L232.541 160.65C232.469 160.524 232.358 160.424 232.225 160.364C232.092 160.304 231.943 160.287 231.799 160.315Z" fill="#FFCEA9"/>
<path d="M278.401 128.755C278.401 128.755 278.206 150.115 278.993 157.027C279.78 163.939 289.71 184.19 280.964 211.666C279.675 213.154 278.491 216.168 267.474 217.432C260.901 217.432 258.518 216.435 258.518 216.435C258.518 216.435 261.058 170.36 257.371 129.901C257.371 118.741 267.039 120.035 268.83 107.67C277.367 111.628 277.374 112.878 277.374 112.878L278.401 128.755Z" fill="white"/>
<path opacity="0.1" d="M274.069 112.64C269.37 113.161 268.755 119.076 268.755 119.076L268.538 128.13C268.538 128.13 269.047 139.677 270.396 143.196L250.011 157.101L254.455 162.242C254.455 162.242 275.995 152.37 277.689 150.807C279.382 149.245 277.689 131.128 277.951 125.913C279.083 116.062 278.798 112.119 274.069 112.64Z" fill="black"/>
<path d="M277.441 117.647C276.647 114.411 274.091 115.452 271.895 113.555C266.791 120.72 270.179 140.101 270.868 142.169L251.293 154.557C250.978 154.765 250.303 155.174 249.981 155.375C248.205 156.439 244.787 158.284 242.704 158.522C240.74 158.746 239.706 161.498 237.622 161.729C237.463 161.734 237.309 161.786 237.18 161.878C237.05 161.97 236.95 162.098 236.894 162.246C236.837 162.393 236.825 162.554 236.86 162.709C236.895 162.863 236.975 163.004 237.09 163.113C237.93 163.916 240.171 163.254 241.7 161.476C241.695 161.521 241.695 161.566 241.7 161.61C241.694 161.962 241.814 162.305 242.039 162.578C242.264 162.85 242.579 163.035 242.929 163.098C242.929 163.227 242.965 163.353 243.034 163.463C243.141 163.689 243.305 163.885 243.509 164.032C243.714 164.179 243.952 164.272 244.203 164.303C244.307 164.636 244.525 164.921 244.82 165.11C245.114 165.299 245.466 165.379 245.814 165.337C246.26 165.312 246.68 165.121 246.991 164.802C248.66 164.164 250.134 163.108 251.27 161.737C252.279 160.707 253.339 159.728 254.448 158.805C259.761 156.536 275.695 149.78 276.407 148.821C277.441 147.4 278.573 122.267 277.441 117.647Z" fill="#FFCEA9"/>
<path d="M273.282 111.078C268.583 111.599 267.968 117.513 267.968 117.513L267.751 126.56C267.751 126.56 268.26 138.115 269.602 141.634L249.224 155.539L253.668 160.68C253.668 160.68 275.208 150.807 276.864 149.245C278.52 147.682 278.94 131.582 279.225 126.374C280.394 116.539 277.988 110.557 273.282 111.078Z" fill="white"/>
<path opacity="0.4" d="M127.258 356.687C147.73 356.687 164.326 347.173 164.326 335.438C164.326 323.703 147.73 314.189 127.258 314.189C106.785 314.189 90.1895 323.703 90.1895 335.438C90.1895 347.173 106.785 356.687 127.258 356.687Z" fill="#D6D8E5"/>
<path d="M100.847 177.889C100.434 181.467 96.1326 196.905 97.0544 202.195C97.9763 207.485 112.673 216.331 112.673 216.331L114.712 207.277L106.573 199.39L108.768 184.399L100.847 177.889Z" fill="#FFCEA9"/>
<path d="M112.216 162.674C110.118 161.774 106.22 161.573 104.032 165.129C101.844 168.685 99.6252 180.872 99.4229 182.985C99.4229 182.985 102.458 187.144 107.007 186.452L112.216 162.674Z" fill="#EDEDED"/>
<path d="M128.996 334.798C132.195 335.672 135.611 335.26 138.507 333.652C140.793 333.719 153.226 328.444 154.92 332.871C156.419 336.762 151.015 340.356 148.137 341.055C141.857 342.543 137.21 345.675 134.684 346.204C132.811 346.598 130.375 346.858 128.876 345.393C127.085 343.637 127.235 337.127 128.996 334.798Z" fill="#38226D"/>
<path d="M134.684 345.132C137.21 344.611 141.857 341.502 148.137 339.991C150.55 339.411 154.702 336.792 155.122 333.667C155.677 337.246 150.82 340.423 148.137 341.063C141.857 342.551 137.21 345.683 134.684 346.211C132.811 346.605 130.375 346.866 128.876 345.4C128.489 344.974 128.207 344.465 128.052 343.912C130.24 345.713 132.811 345.527 134.684 345.132Z" fill="#9C73FF"/>
<path d="M108.828 325.818C112.026 326.699 115.444 326.29 118.339 324.68C120.632 324.747 133.058 319.472 134.752 323.936C136.251 327.827 130.847 331.42 127.969 332.12C121.689 333.608 117.042 336.74 114.524 337.268C112.643 337.663 110.207 337.923 108.716 336.45C106.917 334.649 107.075 328.139 108.828 325.818Z" fill="#38226D"/>
<path d="M114.524 336.145C117.042 335.616 121.689 332.514 127.97 331.004C130.383 330.423 134.535 327.797 134.954 324.68C135.517 328.258 130.653 331.435 127.97 332.075C121.689 333.563 117.042 336.695 114.524 337.224C112.643 337.618 110.207 337.878 108.716 336.405C108.324 335.983 108.041 335.472 107.892 334.917C110.073 336.718 112.643 336.539 114.524 336.145Z" fill="#9C73FF"/>
<path d="M108.581 292.286C109.119 287.702 110.08 283.177 111.452 278.768C111.452 278.768 110.597 267.094 110.17 256.038C109.683 243.487 105.299 232.439 108.754 222.424L147.77 231.04C147.77 231.04 145.409 281.081 144.885 287.138C144.603 291.851 144.022 296.543 143.146 301.184C141.362 310.901 138.469 334.009 138.469 334.009C134.34 336.39 128.929 335.073 128.929 335.073C128.929 335.073 129.229 305.849 129.491 298.848C129.813 290.3 130.076 290.954 130.076 290.954L128.787 269.668L127.947 259.074C127.947 259.074 126.868 266.849 126.163 273.79C125.549 279.846 124.08 285.322 122.416 296.586C120.992 306.362 118.669 326.004 118.669 326.004C114.547 328.385 108.926 326.413 108.926 326.413C108.926 326.413 107.465 300.768 108.581 292.286Z" fill="#8C50FF"/>
<path d="M114.277 162.882C117.275 163.031 119.463 163.79 119.838 162.882C120.155 161.359 120.381 159.819 120.512 158.27C120.168 157.414 119.875 156.499 119.875 156.499C116.128 154.215 114.967 150.212 114.472 145.555C113.64 137.586 117.972 130.608 125.999 129.774C133.546 129.03 139.099 134.238 140.575 141.492C141.377 145.056 142.966 151.804 140.815 157.674C139.616 160.955 138.072 163.559 136.521 164.065C135.028 164.023 133.539 163.893 132.062 163.678C132.062 163.678 131.664 165.91 131.387 167.309C131.11 168.708 131.222 169.482 134.07 171.23C136.918 172.978 129.761 176.55 125.077 176.2C120.393 175.85 115.146 173.045 113.7 170.04C112.104 166.729 112.238 162.786 114.277 162.882Z" fill="#FFCEA9"/>
<path d="M118.579 163.321C117.755 165.36 119.846 167.852 125.429 169.593C131.013 171.334 131.507 169.095 131.507 169.095C131.507 169.095 139.691 172.815 142.352 174.637C145.702 176.966 147.186 183.692 147.643 195.045C148.16 208.184 148.205 227.677 147.77 231.04C147.77 231.04 141.512 237.23 133.531 236.575C125.549 235.921 112.044 228.89 108.799 223.451C108.889 211.934 110.245 210.059 108.364 203.423C104.062 188.23 101.799 182.011 103.867 171.914C105.591 163.589 108.004 162.555 111.317 162.637C113.748 162.738 116.172 162.966 118.579 163.321Z" fill="#F4F4F4"/>
<path d="M160.233 205.908C153.661 207.552 152.117 203.438 151.24 200.03C149.149 191.779 148.025 184.332 146.466 179.652C144.63 174.132 142.719 173.246 140.006 172.175C136.828 170.91 134.1 173.574 135.157 180.597C136.408 188.915 138.05 194.733 141.152 204.591C141.969 207.158 143.798 211.726 146.548 213.928C149.936 216.651 155.047 216.532 162.774 214.627C166.072 213.809 169.684 211.852 175.92 208.966C177.591 208.222 178.917 207.678 182.103 206.19C185.288 204.703 188.66 202.225 190.347 199.807C192.033 197.389 192.25 196.251 191.905 195.7C191.478 195.008 190.714 195.157 189.814 196.176C188.517 197.898 186.914 199.37 185.085 200.521C185.085 200.521 187.161 198.393 188.286 197.01C189.294 195.783 190.131 194.427 190.774 192.977C191.366 191.563 190.144 189.651 189.215 190.656C188.286 191.66 187.843 192.687 186.142 194.711C185.244 195.787 184.22 196.753 183.092 197.59C184.146 196.178 185.086 194.685 185.902 193.126C186.982 190.939 186.967 189.815 186.922 189.079C186.877 188.342 185.827 187.464 184.846 188.855C183.954 190.113 183.347 192.077 181.316 194.212C179.817 195.76 178.535 196.652 178.498 196.221C178.46 195.789 179.405 194.941 179.944 193.141C180.484 191.34 179.944 189.421 178.94 189.227C177.936 189.034 178.13 189.079 177.321 190.76C176.512 192.441 175.282 193.691 174.323 196.154C173.491 198.319 173.117 199.197 171.618 200.774C170.051 202.456 166.484 204.345 160.233 205.908Z" fill="#FFCEA9"/>
<path d="M137.577 171.044C141.969 170.404 145.072 172.368 147.006 178.968C148.939 185.567 150.303 190.991 150.303 190.991C148.565 193.477 145.935 195.21 142.951 195.834C137.705 197.099 135.809 194.606 135.809 194.606C135.809 194.606 134.31 187.687 133.44 182.978C132.571 178.268 132.144 171.862 137.577 171.044Z" fill="#EDEDED"/>
<path d="M140.321 140.473C140.321 140.473 147.261 130.005 132.234 127.87C121.397 126.337 114.427 133.249 113.625 140.748C112.876 147.913 117.305 155.353 120.512 158.307C122.079 158.865 125.451 159.185 129.881 157.183C130.058 155.232 130.125 153.272 130.083 151.313C130.083 151.313 124.799 140.28 140.321 140.473Z" fill="#3A2C6D"/>
<path opacity="0.4" d="M40.9051 269.49C50.8307 269.49 58.877 264.876 58.877 259.185C58.877 253.495 50.8307 248.881 40.9051 248.881C30.9794 248.881 22.9331 253.495 22.9331 259.185C22.9331 264.876 30.9794 269.49 40.9051 269.49Z" fill="#D6D8E5"/>
<path d="M43.4685 267.578C53.3942 267.578 61.4405 262.964 61.4405 257.273C61.4405 251.582 53.3942 246.969 43.4685 246.969C33.5429 246.969 25.4966 251.582 25.4966 257.273C25.4966 262.964 33.5429 267.578 43.4685 267.578Z" fill="#D6D8E5"/>
<path d="M19.4111 222.052L25.6991 257.988H61.3957L67.5337 222.313L19.4111 222.052Z" fill="#D6D8E5"/>
<path d="M43.4687 235.407C56.7677 235.407 67.5487 229.228 67.5487 221.606C67.5487 213.984 56.7677 207.805 43.4687 207.805C30.1697 207.805 19.3887 213.984 19.3887 221.606C19.3887 229.228 30.1697 235.407 43.4687 235.407Z" fill="#E4E6EF"/>
<path d="M43.4684 232.364C37.5701 232.364 32.0691 231.077 27.9771 228.734C24.4697 226.717 22.4536 224.121 22.4536 221.606C22.4536 219.091 24.4697 216.495 27.9771 214.486C32.0616 212.142 37.5701 210.848 43.4684 210.848C49.3666 210.848 54.8751 212.142 58.9671 214.486C62.4746 216.495 64.4831 219.091 64.4831 221.606C64.4831 224.121 62.4746 226.717 58.9671 228.734C54.8751 231.077 49.3741 232.364 43.4684 232.364Z" fill="#28221C"/>
<path d="M53.8334 210.736C53.8334 210.736 53.3613 181.601 43.4684 171.304C31.3947 181.854 33.3058 210.781 33.3058 210.781L43.6183 229.381C44.9673 229.426 53.8334 210.736 53.8334 210.736Z" fill="#99B524"/>
<path d="M43.6185 229.359C43.6185 229.359 38.125 194.45 17.7098 181.333C17.7098 181.333 14.0675 229.15 43.6185 229.359Z" fill="#A6CE28"/>
<path d="M43.4683 229.359C43.4683 229.359 48.4222 195.135 68.3202 182.784C68.3202 182.784 73.0193 229.15 43.4683 229.359Z" fill="#A6CE28"/>
<path opacity="0.4" d="M256.651 371.998C266.564 371.998 274.601 367.391 274.601 361.709C274.601 356.026 266.564 351.419 256.651 351.419C246.738 351.419 238.702 356.026 238.702 361.709C238.702 367.391 246.738 371.998 256.651 371.998Z" fill="#D6D8E5"/>
<path d="M259.319 371.336C269.232 371.336 277.269 366.729 277.269 361.046C277.269 355.364 269.232 350.757 259.319 350.757C249.406 350.757 241.37 355.364 241.37 361.046C241.37 366.729 249.406 371.336 259.319 371.336Z" fill="#D9DCE8"/>
<path d="M241.37 360.883V355.719L247.073 357.617L241.37 360.883Z" fill="#D9DCE8"/>
<path d="M277.254 356.084V360.719L270.681 359.439L277.254 356.084Z" fill="#D9DCE8"/>
<path d="M259.319 366.046C269.232 366.046 277.269 361.439 277.269 355.757C277.269 350.074 269.232 345.467 259.319 345.467C249.406 345.467 241.37 350.074 241.37 355.757C241.37 361.439 249.406 366.046 259.319 366.046Z" fill="#EFF1F9"/>
<path d="M247.553 363.524L245.604 362.408L270.913 347.907L272.854 349.023L247.553 363.524Z" fill="#D3D6E2"/>
<path d="M245.604 362.408V367.69L247.373 368.732L247.62 368.851V363.524L245.604 362.408Z" fill="#C5C8D3"/>
<path opacity="0.4" d="M17.9495 353.361C27.8627 353.361 35.8989 348.754 35.8989 343.071C35.8989 337.389 27.8627 332.782 17.9495 332.782C8.03625 332.782 0 337.389 0 343.071C0 348.754 8.03625 353.361 17.9495 353.361Z" fill="#D6D8E5"/>
<path d="M20.6174 352.699C30.5307 352.699 38.5669 348.092 38.5669 342.409C38.5669 336.726 30.5307 332.12 20.6174 332.12C10.7042 332.12 2.66797 336.726 2.66797 342.409C2.66797 348.092 10.7042 352.699 20.6174 352.699Z" fill="#D9DCE8"/>
<path d="M2.66797 342.238V337.067L8.37133 338.972L2.66797 342.238Z" fill="#D9DCE8"/>
<path d="M38.5522 337.447V342.082L31.9795 340.795L38.5522 337.447Z" fill="#D9DCE8"/>
<path d="M20.6174 347.409C30.5307 347.409 38.5669 342.802 38.5669 337.119C38.5669 331.437 30.5307 326.83 20.6174 326.83C10.7042 326.83 2.66797 331.437 2.66797 337.119C2.66797 342.802 10.7042 347.409 20.6174 347.409Z" fill="#EFF1F9"/>
<path d="M8.85125 344.887L6.91016 343.771L32.2118 329.27L34.1604 330.386L8.85125 344.887Z" fill="#D3D6E2"/>
<path d="M6.91016 343.771V349.053L8.67138 350.087L8.9187 350.214V344.887L6.91016 343.771Z" fill="#C5C8D3"/>
<path opacity="0.4" d="M351.39 343.094C361.303 343.094 369.339 338.487 369.339 332.804C369.339 327.121 361.303 322.515 351.39 322.515C341.477 322.515 333.44 327.121 333.44 332.804C333.44 338.487 341.477 343.094 351.39 343.094Z" fill="#D6D8E5"/>
<path d="M354.051 342.432C363.964 342.432 372 337.825 372 332.142C372 326.459 363.964 321.853 354.051 321.853C344.137 321.853 336.101 326.459 336.101 332.142C336.101 337.825 344.137 342.432 354.051 342.432Z" fill="#D9DCE8"/>
<path d="M336.108 331.978C336.108 331.934 336.108 326.808 336.108 326.808L341.819 328.712L336.108 331.978Z" fill="#D9DCE8"/>
<path d="M371.993 327.18V331.815L365.42 330.528L371.993 327.18Z" fill="#D9DCE8"/>
<path d="M354.051 337.142C363.964 337.142 372 332.535 372 326.852C372 321.169 363.964 316.563 354.051 316.563C344.137 316.563 336.101 321.169 336.101 326.852C336.101 332.535 344.137 337.142 354.051 337.142Z" fill="#EFF1F9"/>
<path d="M342.291 334.62L340.343 333.504L365.644 319.003L367.593 320.119L342.291 334.62Z" fill="#D3D6E2"/>
<path d="M340.343 333.504V338.786L342.112 339.82L342.359 339.947V334.62L340.343 333.504Z" fill="#C5C8D3"/>
</svg>
