<svg width="348" height="332" viewBox="0 0 348 332" fill="none" xmlns="http://www.w3.org/2000/svg">
<path opacity="0.4" d="M228.635 245.472C265.202 245.472 294.846 228.359 294.846 207.248C294.846 186.137 265.202 169.024 228.635 169.024C192.068 169.024 162.425 186.137 162.425 207.248C162.425 228.359 192.068 245.472 228.635 245.472Z" fill="#D6D8E5"/>
<path d="M300.671 67.6372H168.223C168.223 67.6372 168.675 179.916 168.334 201.22C168.246 202.178 168.22 203.141 168.257 204.102C168.257 204.304 168.257 204.457 168.223 204.554H168.278C168.8 213.922 175.238 223.193 187.62 230.341C213.477 245.27 255.431 245.27 281.253 230.376C293.635 223.228 300.045 213.957 300.595 204.589H300.671V67.6372Z" fill="#FF6300"/>
<path d="M303.887 71.507C303.192 73.3327 302.31 75.0819 301.256 76.727C299.151 79.979 296.57 82.8975 293.6 85.3852C292.723 86.1578 291.798 86.9025 290.816 87.6333C288.864 89.096 286.823 90.4371 284.706 91.6492C284.246 91.9137 283.794 92.1712 283.314 92.4218C282.374 92.9438 281.4 93.4519 280.404 93.9321C278.031 95.0944 275.532 96.1663 272.978 97.1198C272.024 97.4817 271.064 97.8158 270.083 98.1499C267.626 98.9781 265.099 99.702 262.51 100.342C261.64 100.565 260.763 100.774 259.879 100.962C257.346 101.528 254.78 101.992 252.181 102.354C251.298 102.486 250.421 102.611 249.537 102.716C246.989 103.027 244.437 103.259 241.881 103.412C241.004 103.46 240.127 103.509 239.236 103.53C236.675 103.641 234.106 103.655 231.58 103.6C230.696 103.6 229.819 103.551 228.935 103.509C226.36 103.391 223.792 103.203 221.237 102.917C220.353 102.82 219.469 102.723 218.593 102.597C216.003 102.263 213.435 101.832 210.902 101.324C210.018 101.15 209.134 100.955 208.264 100.76C205.642 100.161 203.079 99.4653 200.573 98.6719C199.689 98.3935 198.798 98.1012 197.928 97.8019C195.277 96.8832 192.701 95.8531 190.231 94.7116C189.34 94.308 188.456 93.8834 187.6 93.4449C186.426 92.851 185.28 92.2316 184.161 91.5866C182.658 90.7166 181.245 89.8257 179.902 88.8931C178.983 88.2736 178.099 87.6264 177.257 86.9651C174.388 84.7664 171.802 82.2205 169.559 79.3857C168.594 78.15 167.717 76.8476 166.935 75.4881C158.75 61.2132 164.492 44.8641 184.161 33.5054C211.932 17.4974 256.97 17.4974 284.754 33.5054C292.57 38.0155 298.173 43.3051 301.597 48.9496C302.508 50.4429 303.281 52.0153 303.908 53.6476C306.162 59.3887 306.155 65.7712 303.887 71.507Z" fill="#EF990F"/>
<path d="M163.303 62.6401C163.303 62.2782 163.303 42.1917 163.303 42.1917L186.967 52.4159L163.303 62.6401Z" fill="#EF990F"/>
<path d="M305.572 41.0709L305.551 61.6308L292.661 72.6136L284.789 53.759L305.572 41.0709Z" fill="#EF990F"/>
<path d="M169.539 53.1257V79.4485C168.574 78.2127 167.697 76.9103 166.915 75.5509V53.1257H169.539Z" fill="#DD8910"/>
<path d="M179.881 61.248V88.9349C178.963 88.3155 178.079 87.6682 177.237 87.007V61.248H179.881Z" fill="#DD8910"/>
<path d="M190.21 68.4517V94.7744C189.319 94.3707 188.435 93.9461 187.579 93.5077V68.4517H190.21Z" fill="#DD8910"/>
<path d="M200.552 71.6252V98.7692C199.668 98.4908 198.777 98.1985 197.907 97.8992V71.66L200.552 71.6252Z" fill="#DD8910"/>
<path d="M210.889 75.168V101.358C210.005 101.184 209.121 100.99 208.251 100.795V75.168H210.889Z" fill="#DD8910"/>
<path d="M221.216 77.8059V102.966C220.332 102.869 219.448 102.771 218.571 102.646V77.8059H221.216Z" fill="#DD8910"/>
<path d="M231.56 77.8059V103.648C230.676 103.648 229.799 103.6 228.915 103.558V77.8059H231.56Z" fill="#DD8910"/>
<path d="M241.888 77.8059V103.46C241.011 103.509 240.134 103.558 239.243 103.579V77.8268L241.888 77.8059Z" fill="#DD8910"/>
<path d="M252.223 76.8384V102.382C251.34 102.514 250.463 102.639 249.579 102.743V76.8384H252.223Z" fill="#DD8910"/>
<path d="M262.552 74.0752V100.342C261.682 100.565 260.805 100.774 259.921 100.962V74.0752H262.552Z" fill="#DD8910"/>
<path d="M273.019 70.3517V97.1198C272.066 97.4818 271.105 97.8158 270.124 98.1499V70.3517H273.019Z" fill="#DD8910"/>
<path d="M283.355 64.547V92.4218C282.415 92.9438 281.441 93.4519 280.446 93.9321V64.547H283.355Z" fill="#DD8910"/>
<path d="M293.629 58.1926V85.3853C292.752 86.1579 291.827 86.9026 290.845 87.6334V58.1926H293.629Z" fill="#DD8910"/>
<path d="M303.887 49.0122V71.5069C303.192 73.3326 302.31 75.0818 301.257 76.7269V49.0122H303.887Z" fill="#DD8910"/>
<path d="M234.434 82.1419C273.719 82.1419 305.565 63.7538 305.565 41.071C305.565 18.3881 273.719 0 234.434 0C195.149 0 163.303 18.3881 163.303 41.071C163.303 63.7538 195.149 82.1419 234.434 82.1419Z" fill="#FCA70D"/>
<path d="M281.254 116.002C255.398 130.931 213.478 130.931 187.621 116.002L186.41 115.306L186.16 115.459V167.736C186.633 168.028 187.12 168.321 187.621 168.606C213.478 183.542 255.398 183.542 281.254 168.606C281.755 168.321 282.229 168.021 282.709 167.722V115.445L282.451 115.285C282.062 115.536 281.665 115.766 281.254 116.002Z" fill="#ECE8F9"/>
<path d="M275.122 155.577C251.256 166.344 217.611 166.344 193.752 155.584V162.21C217.604 172.963 251.263 172.963 275.122 162.21V155.577Z" fill="#FF6300"/>
<path d="M245.688 138.226C227.752 140.014 208.8 137.53 193.731 130.723V137.349C208.8 144.142 227.773 146.64 245.688 144.859V138.226Z" fill="#FF6300"/>
<path d="M245.688 150.447C227.752 152.229 208.8 149.751 193.731 142.944V149.57C208.786 156.363 227.752 158.862 245.688 157.08V150.447Z" fill="#FF6300"/>
<path d="M262.142 134.217V155.257C263.757 154.763 265.782 154.136 267.668 153.531V132.567H267.592C265.872 133.207 263.68 133.82 262.142 134.217Z" fill="#FF6300"/>
<path d="M273.194 137.905C267.45 140.264 261.479 142.03 255.376 143.174V149.8C261.479 148.656 267.45 146.89 273.194 144.531V137.905Z" fill="#FF6300"/>
<path opacity="0.4" d="M47.4879 252.328C56.721 252.328 64.2059 248.006 64.2059 242.674C64.2059 237.343 56.721 233.021 47.4879 233.021C38.2549 233.021 30.77 237.343 30.77 242.674C30.77 248.006 38.2549 252.328 47.4879 252.328Z" fill="#D6D8E5"/>
<path d="M49.966 251.708C59.199 251.708 66.6839 247.386 66.6839 242.055C66.6839 236.723 59.199 232.401 49.966 232.401C40.7329 232.401 33.248 236.723 33.248 242.055C33.248 247.386 40.7329 251.708 49.966 251.708Z" fill="#D9DCE8"/>
<path d="M33.2549 241.902V237.03L38.5654 238.812L33.2549 241.902Z" fill="#D9DCE8"/>
<path d="M66.6698 237.392V241.749L60.552 240.538L66.6698 237.392Z" fill="#D9DCE8"/>
<path d="M49.966 246.746C59.199 246.746 66.6839 242.424 66.6839 237.092C66.6839 231.761 59.199 227.439 49.966 227.439C40.7329 227.439 33.248 231.761 33.248 237.092C33.248 242.424 40.7329 246.746 49.966 246.746Z" fill="#EFF1F9"/>
<path d="M39.0177 244.38L37.2012 243.329L60.7677 229.729L62.5773 230.773L39.0177 244.38Z" fill="#D3D6E2"/>
<path d="M37.2012 243.329V248.284L38.8437 249.258L39.0734 249.37V244.38L37.2012 243.329Z" fill="#C5C8D3"/>
<path opacity="0.4" d="M90.8837 143.167C100.117 143.167 107.602 138.845 107.602 133.514C107.602 128.182 100.117 123.86 90.8837 123.86C81.6506 123.86 74.1658 128.182 74.1658 133.514C74.1658 138.845 81.6506 143.167 90.8837 143.167Z" fill="#D6D8E5"/>
<path d="M93.3683 142.548C102.601 142.548 110.086 138.226 110.086 132.894C110.086 127.563 102.601 123.241 93.3683 123.241C84.1353 123.241 76.6504 127.563 76.6504 132.894C76.6504 138.226 84.1353 142.548 93.3683 142.548Z" fill="#D9DCE8"/>
<path d="M76.6504 132.741C76.6504 132.699 76.6504 127.869 76.6504 127.869L81.9678 129.651L76.6504 132.741Z" fill="#D9DCE8"/>
<path d="M110.073 128.238V132.588L103.948 131.384L110.073 128.238Z" fill="#D9DCE8"/>
<path d="M93.3683 137.585C102.601 137.585 110.086 133.263 110.086 127.932C110.086 122.6 102.601 118.278 93.3683 118.278C84.1353 118.278 76.6504 122.6 76.6504 127.932C76.6504 133.263 84.1353 137.585 93.3683 137.585Z" fill="#EFF1F9"/>
<path d="M82.4134 135.219L80.6038 134.175L104.163 120.568L105.973 121.612L82.4134 135.219Z" fill="#D3D6E2"/>
<path d="M80.6038 134.175V139.123L82.2463 140.098L82.476 140.216V135.219L80.6038 134.175Z" fill="#C5C8D3"/>
<path opacity="0.4" d="M16.7179 192.214C25.951 192.214 33.4358 187.892 33.4358 182.561C33.4358 177.229 25.951 172.907 16.7179 172.907C7.48487 172.907 0 177.229 0 182.561C0 187.892 7.48487 192.214 16.7179 192.214Z" fill="#D6D8E5"/>
<path d="M19.1957 191.588C28.4288 191.588 35.9136 187.266 35.9136 181.934C35.9136 176.603 28.4288 172.281 19.1957 172.281C9.96265 172.281 2.47778 176.603 2.47778 181.934C2.47778 187.266 9.96265 191.588 19.1957 191.588Z" fill="#D9DCE8"/>
<path d="M2.48486 181.788V176.916L7.79534 178.698L2.48486 181.788Z" fill="#D9DCE8"/>
<path d="M35.8998 177.278V181.628L29.782 180.424L35.8998 177.278Z" fill="#D9DCE8"/>
<path d="M19.1957 186.625C28.4288 186.625 35.9136 182.303 35.9136 176.972C35.9136 171.64 28.4288 167.318 19.1957 167.318C9.96265 167.318 2.47778 171.64 2.47778 176.972C2.47778 182.303 9.96265 186.625 19.1957 186.625Z" fill="#EFF1F9"/>
<path d="M8.24771 184.259L6.43115 183.215L29.9908 169.608L31.8073 170.659L8.24771 184.259Z" fill="#D3D6E2"/>
<path d="M6.43115 183.215V188.171L8.07371 189.138L8.30339 189.256V184.259L6.43115 183.215Z" fill="#C5C8D3"/>
<path opacity="0.4" d="M328.804 261.821C338.037 261.821 345.522 257.499 345.522 252.168C345.522 246.836 338.037 242.514 328.804 242.514C319.571 242.514 312.086 246.836 312.086 252.168C312.086 257.499 319.571 261.821 328.804 261.821Z" fill="#D6D8E5"/>
<path d="M331.282 261.195C340.515 261.195 348 256.873 348 251.541C348 246.21 340.515 241.888 331.282 241.888C322.049 241.888 314.564 246.21 314.564 251.541C314.564 256.873 322.049 261.195 331.282 261.195Z" fill="#D9DCE8"/>
<path d="M314.592 251.395C314.592 251.353 314.592 246.523 314.592 246.523L319.909 248.305L314.592 251.395Z" fill="#D9DCE8"/>
<path d="M347.993 246.885V251.235L341.868 250.031L347.993 246.885Z" fill="#D9DCE8"/>
<path d="M331.282 256.232C340.515 256.232 348 251.91 348 246.579C348 241.247 340.515 236.925 331.282 236.925C322.049 236.925 314.564 241.247 314.564 246.579C314.564 251.91 322.049 256.232 331.282 256.232Z" fill="#EFF1F9"/>
<path d="M320.334 253.866L318.518 252.822L342.084 239.215L343.894 240.266L320.334 253.866Z" fill="#D3D6E2"/>
<path d="M318.518 252.822V257.778L320.16 258.745L320.397 258.863V253.866L318.518 252.822Z" fill="#C5C8D3"/>
<path opacity="0.4" d="M131.141 310.367L95.9651 290.03L101.053 287.093L136.229 307.43L131.141 310.367Z" fill="#D6D8E5"/>
<path d="M114.68 297.561L130.625 306.595L138.532 291.499L123.588 282.729L114.68 297.561Z" fill="#8C50FF"/>
<path d="M100.349 289.118L113.58 296.837L123.06 282.423L108.2 273.778L100.349 289.118Z" fill="#FCA70D"/>
<path d="M104.295 290.288C108.681 290.288 112.236 286.333 112.236 281.455C112.236 276.577 108.681 272.623 104.295 272.623C99.9092 272.623 96.3538 276.577 96.3538 281.455C96.3538 286.333 99.9092 290.288 104.295 290.288Z" fill="#FCA70D"/>
<path d="M123.273 292.511C125.665 288.367 125.665 283.887 123.271 282.505C120.878 281.123 116.998 283.363 114.605 287.507C112.212 291.652 112.213 296.132 114.606 297.514C117 298.895 120.88 296.656 123.273 292.511Z" fill="#FF6300"/>
<path d="M134.502 307.528C139.207 307.528 143.021 303.714 143.021 299.009C143.021 294.304 139.207 290.49 134.502 290.49C129.797 290.49 125.983 294.304 125.983 299.009C125.983 303.714 129.797 307.528 134.502 307.528Z" fill="#8C50FF"/>
<path opacity="0.4" d="M121.717 208.132L86.5408 187.788L91.6285 184.851L126.804 205.195L121.717 208.132Z" fill="#D6D8E5"/>
<path d="M105.256 195.318L121.208 204.353L129.108 189.263L114.165 180.494L105.256 195.318Z" fill="#8C50FF"/>
<path d="M90.9255 186.876L104.156 194.602L113.636 180.187L98.7764 171.543L90.9255 186.876Z" fill="#FCA70D"/>
<path d="M94.8718 188.045C99.2577 188.045 102.813 184.091 102.813 179.213C102.813 174.335 99.2577 170.381 94.8718 170.381C90.4859 170.381 86.9304 174.335 86.9304 179.213C86.9304 184.091 90.4859 188.045 94.8718 188.045Z" fill="#FCA70D"/>
<path d="M113.849 190.277C116.241 186.132 116.241 181.652 113.847 180.27C111.454 178.888 107.574 181.128 105.181 185.272C102.788 189.417 102.789 193.897 105.182 195.279C107.576 196.661 111.456 194.421 113.849 190.277Z" fill="#8C50FF"/>
<path d="M125.078 205.285C129.783 205.285 133.597 201.471 133.597 196.766C133.597 192.061 129.783 188.247 125.078 188.247C120.373 188.247 116.559 192.061 116.559 196.766C116.559 201.471 120.373 205.285 125.078 205.285Z" fill="#FF6300"/>
<path opacity="0.4" d="M252.223 331.714C267.126 331.714 279.207 324.74 279.207 316.137C279.207 307.535 267.126 300.561 252.223 300.561C237.321 300.561 225.24 307.535 225.24 316.137C225.24 324.74 237.321 331.714 252.223 331.714Z" fill="#D6D8E5"/>
<path d="M274.537 197.462C274.844 200.163 278.059 211.793 277.37 215.774C276.681 219.755 265.691 226.423 265.691 226.423L264.174 219.602L270.257 213.672L268.607 202.376L274.537 197.462Z" fill="#FFCEA9"/>
<path d="M266.039 186.006C267.105 185.514 268.314 185.43 269.438 185.77C270.562 186.11 271.522 186.85 272.136 187.85C273.758 190.53 275.435 199.717 275.616 201.283C275.616 201.283 273.347 204.415 269.944 203.893L266.039 186.006Z" fill="#EDEDED"/>
<path d="M253.49 315.664C251.101 316.326 248.547 316.018 246.384 314.808C244.672 314.857 235.373 310.875 234.114 314.216C233 317.146 237.03 319.861 239.18 320.376C243.878 321.517 247.351 323.856 249.238 324.253C250.63 324.552 252.46 324.747 253.581 323.64C254.917 322.318 254.799 317.411 253.49 315.664Z" fill="#38226D"/>
<path d="M249.231 323.445C247.345 323.048 243.872 320.703 239.174 319.568C237.371 319.13 234.267 317.16 233.954 314.808C233.536 317.501 237.169 319.896 239.174 320.376C243.872 321.517 247.345 323.856 249.231 324.253C250.623 324.552 252.453 324.747 253.574 323.64C253.864 323.32 254.077 322.936 254.193 322.519C253.495 323.048 252.683 323.407 251.821 323.568C250.96 323.729 250.073 323.687 249.231 323.445Z" fill="#9C73FF"/>
<path d="M268.566 308.899C266.173 309.557 263.618 309.247 261.452 308.036C259.74 308.084 250.449 304.11 249.182 307.451C248.075 310.374 252.098 313.089 254.256 313.611C258.947 314.745 262.42 317.091 264.306 317.487C265.698 317.78 267.535 317.975 268.656 316.868C269.999 315.546 269.881 310.639 268.566 308.899Z" fill="#38226D"/>
<path d="M264.306 316.68C262.42 316.283 258.947 313.938 254.256 312.803C252.453 312.365 249.342 310.395 249.029 308.043C248.611 310.736 252.244 313.13 254.256 313.611C258.947 314.745 262.42 317.091 264.306 317.487C265.698 317.78 267.535 317.975 268.656 316.868C268.944 316.547 269.154 316.163 269.268 315.747C268.57 316.277 267.759 316.638 266.897 316.8C266.036 316.961 265.149 316.921 264.306 316.68Z" fill="#9C73FF"/>
<path d="M268.754 283.634C268.351 280.181 267.631 276.772 266.603 273.451C266.603 273.451 267.243 264.668 267.563 256.337C267.932 246.878 271.21 238.561 268.621 231.016L239.424 237.503C239.424 237.503 241.185 275.191 241.575 279.757C241.802 283.31 242.246 286.845 242.904 290.343C244.24 297.658 246.384 315.065 246.384 315.065C249.467 316.854 253.518 315.866 253.518 315.866C253.518 315.866 253.295 293.851 253.094 288.583C252.85 282.145 252.655 282.632 252.655 282.632L253.622 266.624L254.249 258.648C254.249 258.648 255.056 264.501 255.585 269.735C256.038 274.294 257.144 278.414 258.369 286.905C259.441 294.269 261.153 309.066 261.153 309.066C264.236 310.855 268.426 309.365 268.426 309.365C268.426 309.365 269.582 290.023 268.754 283.634Z" fill="#8C50FF"/>
<path d="M264.48 186.166C262.26 186.271 260.61 186.862 260.304 186.166C260.064 185.018 259.894 183.855 259.796 182.686C260.053 182.039 260.269 181.343 260.269 181.343C263.053 179.631 263.944 176.61 264.313 173.102C264.932 167.103 261.696 161.848 255.69 161.221C250.052 160.63 245.897 164.597 244.79 170.04C244.199 172.733 243.008 177.807 244.609 182.234C245.507 184.705 246.697 186.667 247.825 187.05C248.941 187.016 250.054 186.919 251.159 186.758C251.159 186.758 251.458 188.421 251.667 189.493C251.875 190.565 251.792 191.129 249.655 192.444C247.518 193.759 252.878 196.453 256.379 196.189C259.879 195.924 263.805 193.808 264.884 191.553C266.123 189.061 266.018 186.09 264.48 186.166Z" fill="#FFCEA9"/>
<path d="M261.278 186.528C261.891 188.066 260.325 189.938 256.156 191.254C251.987 192.569 251.604 190.878 251.604 190.878C251.604 190.878 245.493 193.662 243.496 195.054C240.99 196.808 239.883 201.868 239.542 210.422C239.153 220.319 239.118 235.004 239.452 237.566C239.452 237.566 244.129 242.229 250.122 241.742C256.114 241.254 266.185 235.881 268.656 231.768C268.593 223.089 267.577 221.676 268.983 216.679C272.199 205.236 273.89 200.552 272.331 192.945C271.036 186.681 269.234 185.895 266.763 185.985C264.926 186.069 263.096 186.25 261.278 186.528Z" fill="#F4F4F4"/>
<path d="M230.132 220.228C235.046 221.467 236.201 218.37 236.849 215.802C238.408 209.587 239.25 203.97 240.419 200.448C241.811 196.272 243.203 195.632 245.249 194.817C247.623 193.864 249.662 195.875 248.876 201.165C247.943 207.429 246.711 211.828 244.373 219.261C243.76 221.196 242.389 224.634 240.336 226.297C237.802 228.351 233.981 228.26 228.197 226.819C225.734 226.207 223.033 224.731 218.37 222.56C217.117 221.975 216.15 221.592 213.749 220.472C211.347 219.351 208.842 217.486 207.582 215.663C206.322 213.839 206.155 212.983 206.413 212.565C206.67 212.148 207.311 212.162 207.979 212.927C208.951 214.222 210.149 215.33 211.514 216.199C211.514 216.199 209.962 214.598 209.12 213.554C208.368 212.63 207.743 211.609 207.262 210.519C206.816 209.454 207.735 208.014 208.431 208.765C209.127 209.517 209.454 210.296 210.728 211.821C211.397 212.632 212.161 213.361 213.004 213.992C212.22 212.923 211.522 211.795 210.916 210.617C210.373 209.695 210.107 208.637 210.15 207.568C210.185 207.011 210.971 206.35 211.702 207.401C212.433 208.452 212.802 209.83 214.347 211.438C215.468 212.6 216.435 213.268 216.435 212.948C216.435 212.628 215.739 211.988 215.356 210.631C214.973 209.273 215.356 207.847 216.108 207.679C216.86 207.512 216.713 207.568 217.312 208.835C217.911 210.102 218.843 211.041 219.546 212.899C219.927 214.206 220.62 215.4 221.565 216.379C222.783 217.632 225.455 219.052 230.132 220.228Z" fill="#FFCEA9"/>
<path d="M247.08 193.968C243.795 193.488 241.477 194.964 240.03 199.933C238.582 204.902 237.566 208.981 237.566 208.981C238.861 210.86 240.83 212.168 243.064 212.635C246.99 213.588 248.402 211.709 248.402 211.709C248.402 211.709 249.488 206.496 250.17 202.954C250.852 199.411 251.131 194.567 247.08 193.968Z" fill="#EDEDED"/>
<path d="M244.992 169.281C244.992 169.281 239.807 161.395 251.047 159.795C259.149 158.632 264.355 163.838 264.967 169.49C265.538 174.891 262.183 180.494 259.817 182.714C258.647 183.132 256.121 183.368 252.815 181.865C252.679 180.407 252.623 178.944 252.648 177.48C252.648 177.48 256.622 169.128 244.992 169.281Z" fill="#3A2C6D"/>
<path d="M271.572 204.22L239.452 234.148L237.559 291.714C237.559 291.714 246.558 296.099 256.796 293.733L258.641 271.586L261.494 291.687L261.16 292.292C265.336 290.503 269.512 287.42 273.194 282.277L271.572 204.22Z" fill="#F4F4F4"/>
<path d="M237.559 208.988L235.979 215.948C235.979 215.948 234.629 220.82 231.211 219.574C227.794 218.328 221.697 214.911 221.697 214.911L217.521 223.423L226.11 227.446C226.11 227.446 238.018 231.691 241.338 227.446C244.658 223.2 248.368 211.73 248.368 211.73L237.559 208.988Z" fill="#EDEDED"/>
<path d="M275.616 201.283L277.008 207.909C277.008 207.909 277.704 212.893 277.704 213.846C277.704 214.8 278.17 216.47 275.421 219.205C272.672 221.941 271.941 222.769 271.941 222.769L271.558 207.248L272.352 203.664L274.656 200.761L275.616 201.283Z" fill="#EDEDED"/>
</svg>
